<svg xmlns="http://www.w3.org/2000/svg" viewBox="0 0 387.35 366.08" fill="#ffcc56"><title>Australia Filled_1</title><g id="Layer_2" data-name="Layer 2"><g id="Layer_1-2" data-name="Layer 1"><path d="M224.47,21.51c-.67.74-2,1.31-1.46,2.48s1.94.68,3,.66a1.59,1.59,0,0,0,1.63-1.14c.22-.6.42-1.24,1.23-1.3.31,0,.65-.15.91.09s.16.59-.06.85c-.59.71-.23,1.54-.2,2.28s.51,1.46,1.45.73c.74-.57,1.15-.3,1.45.44a3,3,0,0,0,.4.87c.89,1,.92,1.79-.23,2.77-.93.8-1.37,2.11-2.28,3a1.39,1.39,0,0,0-.4,1.33c.51,1.95-1,2.86-2,4a1.53,1.53,0,0,1-2,.43c-1.05-.55-1.06,0-.81.82.33,1.06-.1,2.4,1.28,3.1.6.31,1.1.67,1.74.2,1-.75,2-1.39,2.93.16,0,.09.46-.08.69-.05,1.16.14,1.25.79.79,1.7a16.12,16.12,0,0,0-.71,1.51c-.21.56-.33,1,.59,1.13.69.08.75.74.6,1.33a1.07,1.07,0,0,1-1.26.86,20.13,20.13,0,0,1-4.92-.89c-.57-.21-.77-.51-.49-1.07a1.14,1.14,0,0,0,.19-.44c0-.87.73-2.06-.56-2.46-1.66-.51-3,0-3.31,1.4a5.77,5.77,0,0,1-2,3.05,18.57,18.57,0,0,0-3.21,4.44c-.68,1.1,0,1.94.9,2.37,2,1,3.63,2.62,5.61,3.67.56.3,1.23.57,1.47,1.19.56,1.42,1.34,1.93,2.7.94.06,0,.16,0,.23,0,.91-.21,1,1.48,2,.92a10.48,10.48,0,0,0,1.55-1.46c.07-.06.4,0,.4.06.11,1.37,2.13,1.54,2,3-.26,2.23,1.34,3.24,2.9,3.86a11.36,11.36,0,0,1,5.27,3.88A8.59,8.59,0,0,0,249,75.78a18.27,18.27,0,0,1,2.94,1c1.49.38,1.81.14,2.16-1.36.57-2.42,4.12-3.93,6.29-2.7.45.25.82.51.74,1.09a.83.83,0,0,1-.76.8c-1.67.13-2.81,1.45-4.37,1.88-1,.28-1.44,1.07-1.21,2.42.31,1.83.87,2.95,2.72,3.75a29.52,29.52,0,0,1,4.75,2.69,5.09,5.09,0,0,0,4.54.59c2.81-.74,5-2.09,5.52-5.23.24-1.53,1.27-2.56,2.14-3.67a15.67,15.67,0,0,0,3-7.93,19.73,19.73,0,0,1,1.8-6.43,7.56,7.56,0,0,0,.71-6.19,7,7,0,0,1,.27-5.39,1.71,1.71,0,0,0-.08-1.83c-1.54-2.09-.87-4.15.17-6.1.82-1.54,1.44-3,.72-4.74-.38-.91.26-1.44.87-2,1.32-1.27,1.3-1.57-.15-2.87a1.11,1.11,0,0,1-.25-1.49,23.38,23.38,0,0,1,2.32-4.46,17.8,17.8,0,0,0,3.79-9.89c.07-.79.27-1.43,1.05-1.71a6.3,6.3,0,0,0,2.12-1.5c1.16-1.07,2.32-.79,2.64.74s1.72,2.2,2,3.76a32.27,32.27,0,0,1,.28,5.23c0,2,0,2,2.12,2.79.22.09.44.18.66.28.81.39,1.08.94.43,1.69-1.05,1.2-.79,2,.24,3.28.86,1,2.25,2.14,1.78,3.92a.63.63,0,0,0,.44.75c.83.32.62,1,.57,1.62a12.41,12.41,0,0,0,.32,4.76.81.81,0,0,1,.07.47c-1.19,3,.76,5.55,1,8.34a3.81,3.81,0,0,0,.2.94c.59,1.65,2.13,2.14,3.05.72,1.09-1.69,2.91-.9,4.21-1.75.57-.37,1.34.69,1.42,1.32.23,1.84,1.42,2.73,2.73,3.83a16.6,16.6,0,0,0,3.34,2.56c.78.38,1,1.2.93,2.39-.27,3.24-.91,6.57.37,9.75a4.87,4.87,0,0,1,.14,3.51,3,3,0,0,0,.47,2.93c.88,1.28,1.47,2.88,3.26,3.29a.85.85,0,0,1,.66,1.28,3.53,3.53,0,0,0,.34,3.22,9,9,0,0,1,0,8.5,2.44,2.44,0,0,0-.19.44c-.23.8,0,1.38.89,1s1.29.21,1.58.89a6.09,6.09,0,0,1-.16,4.45,3.6,3.6,0,0,0,1,3.94c.8.81,1.55,1.45,2.92.95s2.18.17,3,1.71.86,1.71,2.57,1.3c.59-.14.95,0,1.18.45a14.42,14.42,0,0,1,1.1,2.64c.22.88.36,1.54,1.49,1.18a.69.69,0,0,1,.62.28c.8,2.2,3.66,1.8,4.67,3.72.1.19.26.25.39.1,1.26-1.41,1.49.2,2.06.72.35.31.55.79.89,1.11.52.49,1.09.82,1.43-.2a1.66,1.66,0,0,1,.7-.93c.31-.19.7-.27.81.07a30.28,30.28,0,0,1,.92,3.19c.07.31-.27.57-.58.68-1.49.53-1.3.7.13.64a.47.47,0,0,1,.51.41.7.7,0,0,1-.4.79,3.92,3.92,0,0,1-2.36.07c-.95-.15-1,.39-.66,1a5.68,5.68,0,0,0,1.85,2.15A5.36,5.36,0,0,1,353,131a6.24,6.24,0,0,0,1.43,3.73c.55.53.38,1.16.27,1.8a10.56,10.56,0,0,0,.08,4.29,9.67,9.67,0,0,0,.75,2c.25.5.7,1.07,1.27.91s.12-.82.18-1.25c.21-1.55.54-1.64,1.85-.81a4.19,4.19,0,0,1,1.71,1.92,3.49,3.49,0,0,0,1,1.58c.32.23.65.67,1,.5s0-.69.06-1.05.12-1,.66-1.17.81.35,1.14.68a6.28,6.28,0,0,1,1.66,6.6,11.89,11.89,0,0,0-.49,3.3c0,1.78.2,3.17,2.4,3.37,1,.09,1.4.78,1.48,1.84a16.32,16.32,0,0,0,.77,2.76,1.72,1.72,0,0,0,1.61,1.5c2.21.18,2.86,2,3.2,3.63.48,2.29,1.15,4.3,3.27,5.58a2.54,2.54,0,0,1,1.07,2.05,6.89,6.89,0,0,0,.26,1.65c.37,1,.77,1.94,2,2.17s2.09-.6,2.93-1.3a1.35,1.35,0,0,0,.31-1.76c-.41-.74-.12-1.2.45-1.62a1.15,1.15,0,0,1,1.32-.25c.4.23.2.73.32,1.08.82,2.51-.36,4.44-1.71,6.37a14.38,14.38,0,0,0-1.33,2.54c-.22.5-.55,1.3-.33,1.59,1.27,1.7-.2,2.93-.54,4.36a43.19,43.19,0,0,0-.71,7.84,3.47,3.47,0,0,1-.57,2.26c-.82,1-.36,1.95.22,2.86.13.2.32.38.57.3s.31-.34.3-.58c0-.64-.11-1.28-.09-1.91a2.11,2.11,0,0,1,.71-1.71.92.92,0,0,1,.89-.23.59.59,0,0,1,.38.77,5.42,5.42,0,0,0,0,3.93c.22.58-.39,1.49-.66,2.24-.68,1.9-1.28,3.79-.38,5.81a2.86,2.86,0,0,1,0,1.89c-.1.39-.37.8-.3,1.15.56,3-1,5.17-2.65,7.36a4.76,4.76,0,0,0-.88,1.94,39.11,39.11,0,0,1-3.77,9.55c-1,2-2.36,3.84-1.68,6.29a1.8,1.8,0,0,1-.29,1.14c-1.76,3.27-2.62,7.07-5.68,9.59a3.66,3.66,0,0,0-1.06,2.6c-.15,1.32-.56,2.48-2.06,2.91a2.12,2.12,0,0,0-1.13.84,3.66,3.66,0,0,1-3.13,1.86c-1.48.11-2.34,1.33-3.07,2.47a38,38,0,0,1-3.26,4.43,4.35,4.35,0,0,0-.92,1.92,6.49,6.49,0,0,1-3.07,4.38,4.38,4.38,0,0,0-.9.78c-1,1-.48,2.49-1.08,3.55s-1.52,2-1.39,3.42-.46,2.14-1.95,2.5a2.22,2.22,0,0,0-1.48,1c-1.07,1.68-2.15,3.37-3.27,5a6,6,0,0,0-1.05,2.65,16.74,16.74,0,0,1-1.95,5.37,9.68,9.68,0,0,0-1.14,5.51,4.62,4.62,0,0,1-2.19,4.35,8.38,8.38,0,0,1-7.21,1.5,31.92,31.92,0,0,0-5.24-.51,11.22,11.22,0,0,0-7.27,2c-1.65,1.12-3.18,2.42-4.77,3.63a9.65,9.65,0,0,1-3.42,2.09,2.49,2.49,0,0,0-2.07,2.35,2.18,2.18,0,0,1-.44,1.08.94.94,0,0,1-1.73-.07,10.31,10.31,0,0,1-.6-1.56c-.14-.38-.36-.94-.74-.82-1.62.53-1.65-1-2.39-1.64a10,10,0,0,0-4.64-2.71,6.15,6.15,0,0,1-3.71-2c-1-1.19-2-1.14-3.46-.43a22.62,22.62,0,0,0-4.06,3,4.11,4.11,0,0,1-5.61-.1c-1.56-1.27-3.55-1.86-4.94-3.36a2.11,2.11,0,0,0-1.25-.67,6.85,6.85,0,0,1-4-1.42c-.64-.51-1.24-.19-1.84.45a1.85,1.85,0,0,1-3.12-.37,5.48,5.48,0,0,0-4.84-3.33,4.18,4.18,0,0,1-3.32-2.49,21.48,21.48,0,0,0-3.06-4.55,6.62,6.62,0,0,1-1.71-4.36,2.48,2.48,0,0,1,.64-2.14,2.4,2.4,0,0,0,.52-2.47c-1-4.12-2.72-7.84-6.3-10.43a2.54,2.54,0,0,0-3.07-.39c-1.4.78-3,.39-4.48.38l0,0a1.76,1.76,0,0,1,.56-2.49,7,7,0,0,0,1.59-9.35,12.24,12.24,0,0,1-.73-1.5c-.18-.42-.16-1-.8-1s-.8.52-1,.94a3.22,3.22,0,0,0-.43,1.35c0,2-1.17,3.64-1.59,5.5-.15.68-.65,1.33-1.33,1.1-1.62-.55-3,.19-4.4.64a9,9,0,0,1-1.87.38c-.91.08-1.39-.49-1.09-1.35a16.5,16.5,0,0,1,1.18-2.6c.52-.94,1.5-.74,2.36-.79.67,0,1.57.35,1.73-.73.12-.76.94-1.66-.3-2.28a.74.74,0,0,1-.25-1.21c.83-1,.81-2.16,1.08-3.31a8.7,8.7,0,0,1,2.48-4.31c1.18-1.12,1.94-2.32,1.14-4a1.66,1.66,0,0,1,.48-2c.39-.39.9-.73.73-1.4-.11-.44-.09-.92-.88-.54a6.05,6.05,0,0,0-3.45,3.7,24.62,24.62,0,0,1-1.06,2.41,3.44,3.44,0,0,1-2.25,2,13.14,13.14,0,0,0-8.21,7.19c-.1.22-.23.42-.34.63-.28.56-1.6.28-1.25,1.12s.25,2.07,1,2.87a9.59,9.59,0,0,1,.78.91,1,1,0,0,1,.13,1.12c-.33.46-.68,0-1-.08-1.4-.29-2.43-1.72-4.1-1.23-.47.14-.79-.48-1-.89a9,9,0,0,0-2.8-2.58c-1.28-.9-1.5-1.94-.15-2.55s.88-1,.67-1.95a9.23,9.23,0,0,0-3.19-5.42,2.72,2.72,0,0,1-.74-2c-.3-2.16-1.25-3.06-3.37-3.38a3.9,3.9,0,0,1-2.58-6.06c.24-.35.52-.61.19-1a.81.81,0,0,0-.87-.25c-.31.08-.6.23-.9.31-.92.26-1.35,0-1.27-1.05.11-1.56,0-1.28-1.44-1.6-2.42-.53-5-.71-7-2.52-1-.94-2-1.32-3.39-.41a3.1,3.1,0,0,1-3.78-.53,24.2,24.2,0,0,0-6.23-4,3.45,3.45,0,0,0-3.41-.09,5.89,5.89,0,0,1-3.5.61c-4.43-.35-8.76.5-13.11,1.08a8.68,8.68,0,0,0-3.32,1.31,34.2,34.2,0,0,1-8.68,4,22.37,22.37,0,0,0-2.66,1.09,17.36,17.36,0,0,1-9.14,1.27,7.75,7.75,0,0,0-7.21,2.24,8.46,8.46,0,0,1-2.19,1.45,22.69,22.69,0,0,0-3.68,2.23,8,8,0,0,1-3.79,1.91,4.38,4.38,0,0,0-3.91,4,15.42,15.42,0,0,1-2.31,5.45,3.75,3.75,0,0,1-2.38,1.89,5.22,5.22,0,0,0-2,.73,1.07,1.07,0,0,1-1.53-.06,1.85,1.85,0,0,0-2.19-.39c-1.8.54-3.75.49-5.41,1.58a1.11,1.11,0,0,1-1.68-.34c-.48-1-1.13-.92-2-.61a1.62,1.62,0,0,1-.95,0c-2.85-.81-5.55.25-8.17,1-2.07.56-4.13,1-6.22,1.36-2.66.47-3.55,1.54-3.74,4.3a3.11,3.11,0,0,1-3.14,2.34c-1.61-.36-2.34.45-3.47,1.34-2.08,1.63-3,4.29-5.3,5.65a6.22,6.22,0,0,1-2.15.78c-3.09.57-6.23-.07-9.3.62a5.22,5.22,0,0,1-3.73-.48c-1.11-.61-2.47-.21-3.46-.75s-1.44-1.88-2.51-2.49c-1.7-1-3.22-2.42-5.47-1.56-.69.27-1.28-.3-1.55-.86a17.57,17.57,0,0,1-1.65-7.18c0-.94.48-1.19,1.43-.87,1.93.64,2.51.31,3.23-1.54a7.23,7.23,0,0,0-.12-5.61c-.6-1.43-1.09-2.85-.32-4.38.1-.2.21-.53.12-.69-1.14-1.9-.54-4-.81-6a4.5,4.5,0,0,0-.66-1.79,83.93,83.93,0,0,0-5-7.34c-2.3-2.84-3.38-6.14-4.28-9.53-.45-1.69-.58-3.46-.94-5.18a7.83,7.83,0,0,0-2.69-4.94,5.54,5.54,0,0,1-2-3.16c-.48-1.84-1.94-3.13-3.35-4.27a6.47,6.47,0,0,1-2.5-5,7.07,7.07,0,0,0-1-3.4,33.49,33.49,0,0,0-6.86-8.27,14.84,14.84,0,0,1-2.45-2.59,50.37,50.37,0,0,0-3.2-4.46A5,5,0,0,1,0,183.51a.93.93,0,0,1,.78-1c.47-.09.74.22.93.59.39.79.74,1.59,1.14,2.38.18.35.41,1,.64,1,3,.13,3.19,3.15,4.87,4.62.36.31.62.73,1,1.08.17.18.43.31.63.12a1,1,0,0,0,.3-.61,1.43,1.43,0,0,0-.93-1.52c-2.25-1-2.88-3.33-4.05-5.18a2.63,2.63,0,0,1-.2-1.39c0-.56.15-1.19.77-1.36s.8.41,1.14.73A25.55,25.55,0,0,0,10.25,186c.66.43.73,1.22,1,1.86s.44,1.2.72,1.77c.14.28.42.55.77.36a.71.71,0,0,0,.33-.56c-.31-2.15.08-4.51-2-6.14-1-.79-1.49-2.12-2.35-3-2.33-2.36-3.12-5.68-5.34-8.08a4.48,4.48,0,0,1-1-2.64,13.14,13.14,0,0,1,1.51-8.33,4,4,0,0,0,.55-3,4.82,4.82,0,0,1-.18-2.13,3.29,3.29,0,0,0-.91-3.09,3.16,3.16,0,0,1-.58-3.75A22.54,22.54,0,0,0,4,144.68a4.83,4.83,0,0,1,1.21-2.56,1.14,1.14,0,0,1,1.29-.38c.44.18.48.6.48,1a10.5,10.5,0,0,1,0,1.68,3.2,3.2,0,0,0,.84,2.65c.2.24.31.6.68.58s.64-.44.75-.82a15,15,0,0,0,.43-1.87,7.43,7.43,0,0,1,4.42-5.83c1.14-.57,2.22-1.26,3.33-1.89A4.72,4.72,0,0,0,18.82,136,44.11,44.11,0,0,1,24,130.13a18.18,18.18,0,0,1,3.37-2.49,6.78,6.78,0,0,0,2.21-1.81c.61-.83,1.05-2.46,2.18-.38.12.22.44.19.65.06,1.13-.69,2.16-.29,3.37,0a5.62,5.62,0,0,0,5.16-1.93,9.39,9.39,0,0,1,6.13-3.33,4.81,4.81,0,0,0,4.17-2.79,2.89,2.89,0,0,1,3.15-1.74c2.22.41,4.16-.34,6.25-.84a32.94,32.94,0,0,0,9-3.73c3.74-2.19,5.81-5.55,6.88-9.68C77,99.7,77.61,98,79.36,97a19.86,19.86,0,0,0,2.81-2.58c.78-.7,1.72-1.36-.19-1.76a.69.69,0,0,1-.38-.54c.13-2-.79-3.75-.78-5.69a6.45,6.45,0,0,1,1.56-4.18,82.94,82.94,0,0,0,5.38-6.66,2.41,2.41,0,0,1,1.06-.94c.69-.29,1.39.14,1.24.61-.47,1.46.92,2,1.19,3,.44,1.61,1.5,2.8,2.22,4.21a3.15,3.15,0,0,0,.39.61c.33.39.42,1.27,1.12,1s.29-1,.31-1.53c0-1-.6-2.5,1.5-2,.46.1.53-.33.31-.63-.5-.71-.89-1.61-1.78-1.88-1.18-.35-1.41-1.43-2-2.25a1.45,1.45,0,0,1-.16-.66c1.56-.55.6-2.28,1.48-3.13a2,2,0,0,1,2.4-.57c1.51.73,3.3.65,4.68,1.77.68.56,1,.07,1.08-.62.27-1.6.94-3.11-.08-4.79a3.73,3.73,0,0,1,0-3.26c.19-.46.44-.9,0-1.32-1.08-1.16-.18-1.46.74-1.75a1.66,1.66,0,0,1,.7-.14c1.92.3,3-.39,3.12-2.44.05-.79.84-.78,1.49-.88,1.51-.24,1.49-.26,1-1.76a8.49,8.49,0,0,1-.54-2.07c-.07-1.23.6-1.73,1.72-1.2a2.91,2.91,0,0,0,1.6.09c1,0,1.69-.4,1.57-1.6-.06-.58.06-1.18.75-1.31a1.46,1.46,0,0,1,1.52.91c.32.79.88,1.5,1.75,1.15s1.2-2.47.48-3.27a1.44,1.44,0,0,1,0-2.13,1.55,1.55,0,0,1,2.35-.24c1,.94,1.67,1.15,2.37-.16a1,1,0,0,1,1.61-.4c1,.76,1.07.33,1.37-.66a2,2,0,0,1,3-.86,12.71,12.71,0,0,0,3.29,1.27c1.83.63,3.11,2.19,4.4,3.55s2.74,3.18,4.59,4.16c.93.5.72,1.92,1.3,1.88s1.26-.89,2.07-1a3.24,3.24,0,0,1,1.41.11c2.52.87,5.14.6,7.72.84,1.08.1.87-1,1.45-1.35s.08-.89-.26-1.24c-.69-.73-1.86-1.08-1.91-2.32s1.09-2.12,1.27-3.32a1,1,0,0,1,.8-.79c1.45-.33,1.68-1.53,2-2.69.19-.69.35-1.4.58-2.08.29-.86.55-1.5,1.86-1.2s2.24-.87,1.61-2.2a3.94,3.94,0,0,1-.52-2.28c.05-.39.19-1.06.35-1.08,2.19-.28,1.8-3.07,3.63-3.66,1.1-.35.2-2,1.42-2.26.84-.18,1.76.19,2.55-.4.25-.19.8-.26.82-.43.23-1.93,2.18-1.48,3.14-2.36.71-.64,1.19-.4,1.42.36.4,1.39,1.3,1.6,2.58,1.43,1.46-.19,2.92-.85,4.45-.14.41.19.89-.27,1.28-.55,1-.74,1.93-1.55,3.43-1.35,1,.12,1.25-.87,1.08-1.75-.09-.45-.49-.83-.62-1.28-.6-2.13-1.63-3.37-4-2.2-.54.26-1.07-.08-1.52-.47s-1.09-.94-1.67-1.36c-1.29-.95-1.25-1.56.09-2.43,1.11-.72,2.33-.43,3.49-.5.76,0,1.49,0,1.82-.78.47-1.15,1.58-.32,2.3-.8.36-.24.54.39.66.77a10.91,10.91,0,0,1,.3,3.09c0,1.1.42,1.24,1.33.6,1.4-1,1.6-1,2.63.32a14.41,14.41,0,0,1,1,1.63c.24.41.47.91,1,.86s.74-.48.68-1c-.09-.77.53-.89,1.06-1.05,1.17-.35,1.6,0,1.46,1.29s.24,2,1.28,1.57c2.33-1,3.77.57,5.39,1.51,1.78,1,3.38,2.14,5.51.8.66-.41,3,.72,3.36,1.57.46,1.24,1.19,1.09,2.07.66,1.85-.9,3.69-1.82,5.54-2.73.77-.38,1.06-1.18,1.61-1.75.73-.76,1.48-1.27,2.46-.39Zm66.48,284.67a6.11,6.11,0,0,0,0,.81c.16,1,.68,1.15,1.41.52a4.56,4.56,0,0,0,.76-.9c.44-.65.14-1.2-.29-1.71a1.1,1.1,0,0,0-1.49-.19C290.77,305,290.58,305.45,290.94,306.19ZM223.83,41.06c0-.31,0-.76-.37-.75a1.22,1.22,0,0,0-1.17,1.19.53.53,0,0,0,.55.61A1,1,0,0,0,223.83,41.06Z"/><path d="M288.75,350.57c1-2.17-.15-4.47-1.32-6.88a14.45,14.45,0,0,1-1.54-7c.12-2.2,1.14-4.36,1.81-6.52.12-.38.57-.54,1-.65s1-.2,1.28.31a.8.8,0,0,1-.36,1.21c-.77.39-.76.52,0,1a75.53,75.53,0,0,1,7.66,5.49,5.37,5.37,0,0,0,5.41.82,11.73,11.73,0,0,1,4.43-.74c1,0,2.24.23,3.15-.72.35-.36.9-.23,1.36,0a.87.87,0,0,0,.91,0c.71-.58,1.35-1.18,2.24-.24a4,4,0,0,1,1.47,3.56c-.52,3.83-1.81,7.57-1.56,11.5a2.87,2.87,0,0,1-.24,1.16c-.19.5-.32,1.19-1.06,1.08s-.9-.59-.78-1.25c0-.22.16-.49-.16-.58-.07,0-.26.19-.31.33-.38,1-.95,2.06-.3,3.2.28.5.62,1.22.07,1.52-1.73.91-1.26,2.71-1.78,4.08-.29.77-.3,1.54-1.37,1.64a1.55,1.55,0,0,1-1.77-1.23c-.13-.38-.31-.81-.78-.77s-.43.58-.58.93c-.28.66-.57,1.31-.87,2a5.45,5.45,0,0,1-.31.64c-.22.35-.61.77-.94.64-1.76-.68-3.09,2.06-4.88.6a4.45,4.45,0,0,0-3.13-.93,2.16,2.16,0,0,1-2.17-1.44c-1.09-2-2-4.16-3.18-6.15A11.09,11.09,0,0,1,288.75,350.57Z"/><path d="M176.62,19.3c-.54.75-.35,2-1.73,2.49a17.41,17.41,0,0,0-3.6,2.35,1.59,1.59,0,0,1-1.77.3c-2.47-1.25-5.1-.71-7.68-.7a5.55,5.55,0,0,1-.95,0,1,1,0,0,1-.72-1.6,4.86,4.86,0,0,0,1.24-2.62c.12-1.39,1.86-2.06,2.56-3.33.14-.26.62-.07.86.14,2.46,2.12,5,1.32,7.54.21C174.14,15.83,176.67,17.42,176.62,19.3Z"/><path d="M236.44,276.39c.68,2.18.36,2.64-1.8,2.36a2,2,0,0,0-2.1.73,2.21,2.21,0,0,1-2.95.66c-1.33-.56-2.82.06-4.25,0a3,3,0,0,1-2.29-1c-1-1.09-.82-2.66.59-3.07a36.24,36.24,0,0,1,7.47-1.56c.47,0,1.19-.11,1.33.31.64,1.89,2.26,1.32,3.56,1.56.16,0,.32,0,.48.06Z"/><path d="M314,332.74c.76-1.65,0-3.14-.73-4.52a1.77,1.77,0,0,1,.48-2.31c.59-.64,1.31-.74,1.84,0,1.1,1.49,2.62,2.83,2.17,5a3.28,3.28,0,0,0,.27,1.85c.57,1.49.4,1.77-1,2.26C315.18,335.66,313.9,334.7,314,332.74Z"/><path d="M284.14,323.06a12,12,0,0,1-.19,2,1.94,1.94,0,0,1-2.1,1.57c-1.1-.08-.91-1.1-1-1.86a5.3,5.3,0,0,1,.87-3.61c.32-.45.62-1,1.3-.82a1.5,1.5,0,0,1,1.09,1.41A13.38,13.38,0,0,1,284.14,323.06Z"/><path d="M224.45,21.53c1.62-1.48,3.8-2.34,4.85-4.45.35-.71.76-1.38,1.14-2.07.15-.28.32-.61.68-.53s.55.54.5.94a4.17,4.17,0,0,1-.31,1.14,12.39,12.39,0,0,1-4.7,5.23c-.61.41-1.6,1.07-2.15-.28Z"/><path d="M290.6,8.76a1,1,0,0,1-.66.91,2.11,2.11,0,0,1-2.36-1.8.94.94,0,0,1,.71-.87C289,6.82,290.56,8.07,290.6,8.76Z"/><path d="M.63,177.49c.31-1.15-.28-2.25.62-3.09,1.2.76.69,2,.65,2.95s.3,2.06-.5,2.92C0,179.53,1.19,178.23.63,177.49Z"/><path d="M289.44,12.44a.8.8,0,0,1,.83.87A1.87,1.87,0,0,1,288.36,15a1.07,1.07,0,0,1-.92-1.2C287.47,13.05,288.43,12.38,289.44,12.44Z"/><path d="M16.92,130.69c-.68-.05-.83-.51-.78-1,.08-.82.39-1.64,1.28-1.79.72-.12.89.57.86,1.14A1.59,1.59,0,0,1,16.92,130.69Z"/><path d="M363.83,138c-.33.61-.7,1-1.31,1a1.35,1.35,0,0,1-1.06-1.55c.08-.33.39-.62.68-.42C362.67,137.38,363.51,137.29,363.83,138Z"/><path d="M259,79.45c0,.8-.48,1.08-1.18,1.11a.75.75,0,0,1-.88-.57c-.11-.52.69-1.52,1.2-1.48S258.87,79,259,79.45Z"/><path d="M294.49,0c.49,0,1,.08,1,.67s-.54.69-1,.7-1-.09-1-.67S294,0,294.49,0Z"/></g></g></svg>