<?xml version="1.0" standalone="no"?>
<!DOCTYPE svg PUBLIC "-//W3C//DTD SVG 20010904//EN"
 "http://www.w3.org/TR/2001/REC-SVG-20010904/DTD/svg10.dtd">
<svg version="1.0" xmlns="http://www.w3.org/2000/svg"
 width="327.000000pt" height="217.000000pt" viewBox="0 0 327.000000 217.000000"
 preserveAspectRatio="xMidYMid meet">

<g transform="translate(0.000000,217.000000) scale(0.100000,-0.100000)"
fill="#000000" stroke="none">
<path d="M1476 2078 c-6 -13 -20 -18 -52 -18 -24 0 -52 -4 -62 -9 -9 -5 -37
-15 -62 -22 l-45 -13 53 -8 c29 -4 62 -13 73 -18 15 -8 19 -7 19 5 0 15 26 20
54 9 20 -8 23 -136 4 -152 -7 -5 -78 -15 -158 -21 -215 -17 -389 -30 -437 -35
l-43 -4 0 59 c0 33 -4 59 -10 59 -5 0 -10 -25 -10 -56 l0 -55 -159 -157 c-87
-86 -182 -188 -211 -225 -34 -44 -58 -67 -70 -65 -17 3 -21 -7 -13 -28 2 -6
-14 -85 -36 -175 -43 -180 -91 -405 -116 -544 -21 -117 -24 -125 -41 -125 -8
0 -14 -4 -14 -10 0 -5 8 -10 18 -10 12 0 32 -25 61 -81 24 -44 45 -78 48 -75
3 3 -13 39 -36 81 l-42 76 32 -3 c31 -3 33 -5 54 -84 l22 -81 -22 -1 c-17 0
-36 20 -76 76 l-52 75 -14 -26 c-18 -35 -5 -161 15 -148 8 5 17 23 21 41 3 19
11 35 16 37 18 5 53 -62 48 -90 -3 -16 2 -36 15 -54 11 -15 25 -47 32 -70 l13
-43 1141 0 1142 0 19 22 c11 13 19 26 18 29 -1 3 13 23 31 43 24 25 42 36 62
36 27 -1 24 -4 -29 -36 -32 -20 -56 -39 -53 -41 3 -3 35 13 71 36 l66 42 93
-7 94 -7 107 87 c59 47 118 89 131 92 30 8 31 24 1 24 -16 0 -44 27 -103 98
-119 143 -403 483 -427 512 -12 14 -66 78 -119 142 l-98 117 0 60 c0 56 1 60
25 63 32 4 37 22 8 26 -24 4 -25 7 -43 137 -12 90 -13 85 6 85 9 0 14 5 12 11
-2 7 -65 11 -178 12 l-175 2 0 78 c0 55 -4 77 -12 77 -8 0 -13 -13 -13 -31 0
-31 0 -31 -42 -25 -24 3 -144 19 -268 36 -124 17 -235 33 -247 36 -21 4 -23 9
-25 127 -2 76 -6 115 -12 105z m-46 -252 c0 -1 -59 -57 -132 -122 -145 -131
-188 -170 -358 -326 l-115 -106 -3 251 c-1 137 -1 252 1 254 4 4 47 7 372 33
127 9 231 18 233 19 1 0 2 -1 2 -3z m-96 -130 c-77 -73 -173 -175 -214 -225
-56 -69 -80 -91 -93 -87 -15 4 -18 0 -14 -14 3 -11 -6 -54 -19 -97 -43 -140
-83 -360 -108 -603 -3 -25 -6 -52 -6 -60 -1 -8 -15 66 -31 165 -21 137 -28
215 -29 327 l0 146 212 194 c117 106 259 237 317 290 59 53 110 97 115 98 4 0
-54 -60 -130 -134z m437 99 c329 -46 299 -37 299 -85 l0 -40 -59 0 c-48 0
-101 14 -278 76 -200 70 -237 84 -221 84 3 0 120 -16 259 -35z m-236 -110 c8
-55 29 -156 46 -224 l31 -124 -32 -31 -31 -31 -29 35 -29 35 -1 235 c0 204 2
232 14 220 8 -8 22 -60 31 -115z m160 60 c87 -31 165 -60 174 -65 11 -6 -10
-9 -66 -10 -49 0 -83 -4 -83 -10 0 -5 5 -10 10 -10 11 0 12 -56 2 -83 -6 -14
-25 4 -97 94 -89 112 -109 139 -102 139 2 0 74 -25 162 -55z m-898 -442 c-1
-54 -3 -12 -3 92 0 105 2 149 3 98 2 -51 2 -136 0 -190z m670 60 c-1 -43 -3
-10 -3 72 0 83 2 118 3 78 2 -40 2 -107 0 -150z m237 -103 c-1 -140 -21 -154
-94 -63 l-52 65 33 34 c29 30 39 35 74 32 l40 -3 -1 -65z m-184 -1 c0 -9 -7
-22 -15 -29 -13 -11 -15 -5 -15 41 1 52 1 53 15 29 8 -14 14 -32 15 -41z
m-359 24 c13 -16 12 -17 -3 -4 -10 7 -18 15 -18 17 0 8 8 3 21 -13z m147 -117
c3 -6 -22 12 -57 39 -34 27 -65 54 -69 59 -3 6 22 -12 57 -39 34 -27 65 -54
69 -59z m102 -123 c0 -12 -191 138 -225 177 -11 13 35 -21 103 -74 67 -54 122
-100 122 -103z m119 86 l7 -71 -23 28 c-25 32 -31 92 -11 112 17 17 20 10 27
-69z m-814 -94 c17 -15 3 -8 -30 14 -33 23 -87 66 -120 97 -57 53 -56 52 30
-15 50 -39 104 -82 120 -96z m816 -147 c25 -247 22 -294 -7 -128 -30 165 -42
341 -24 323 7 -7 20 -85 31 -195z m809 2 c0 -18 -3 -19 -20 -10 -11 6 -20 15
-20 20 0 6 9 10 20 10 13 0 20 -7 20 -20z m-873 -102 c-3 -8 -6 -5 -6 6 -1 11
2 17 5 13 3 -3 4 -12 1 -19z m30 -90 c-3 -8 -6 -5 -6 6 -1 11 2 17 5 13 3 -3
4 -12 1 -19z m-670 -40 c-3 -8 -6 -5 -6 6 -1 11 2 17 5 13 3 -3 4 -12 1 -19z
m8 -38 c3 -5 1 -10 -4 -10 -6 0 -11 5 -11 10 0 6 2 10 4 10 3 0 8 -4 11 -10z
m22 -12 c-3 -8 -6 -5 -6 6 -1 11 2 17 5 13 3 -3 4 -12 1 -19z m650 0 c-3 -8
-6 -5 -6 6 -1 11 2 17 5 13 3 -3 4 -12 1 -19z m20 0 c-3 -8 -6 -5 -6 6 -1 11
2 17 5 13 3 -3 4 -12 1 -19z m461 16 c19 -6 22 -11 18 -35 -4 -16 -9 -43 -12
-59 -3 -17 -9 -28 -13 -26 -4 3 -29 32 -55 65 l-47 61 43 0 c24 0 53 -3 66 -6z
m116 -10 c3 -8 2 -12 -4 -9 -6 3 -10 10 -10 16 0 14 7 11 14 -7z m-44 -4 c0
-5 -4 -10 -10 -10 -5 0 -10 5 -10 10 0 6 5 10 10 10 6 0 10 -4 10 -10z m-503
-22 c-3 -8 -6 -5 -6 6 -1 11 2 17 5 13 3 -3 4 -12 1 -19z m-720 -20 c-3 -8 -6
-5 -6 6 -1 11 2 17 5 13 3 -3 4 -12 1 -19z m27 7 c3 -8 1 -15 -4 -15 -6 0 -10
7 -10 15 0 8 2 15 4 15 2 0 6 -7 10 -15z m643 -7 c-3 -8 -6 -5 -6 6 -1 11 2
17 5 13 3 -3 4 -12 1 -19z m520 0 c-3 -8 -6 -5 -6 6 -1 11 2 17 5 13 3 -3 4
-12 1 -19z m27 -3 c-4 -8 -8 -15 -10 -15 -2 0 -4 7 -4 15 0 8 4 15 10 15 5 0
7 -7 4 -15z m928 -25 c75 -27 88 -36 125 -84 l42 -54 -46 -12 c-42 -10 -49 -9
-61 7 -7 10 -41 47 -76 83 -61 63 -82 90 -72 90 3 0 42 -14 88 -30z m-2132
-21 c0 -5 -4 -9 -10 -9 -5 0 -10 7 -10 16 0 8 5 12 10 9 6 -3 10 -10 10 -16z
m17 -1 c-3 -8 -6 -5 -6 6 -1 11 2 17 5 13 3 -3 4 -12 1 -19z m653 7 c0 -8 -2
-15 -4 -15 -2 0 -6 7 -10 15 -3 8 -1 15 4 15 6 0 10 -7 10 -15z m24 0 c3 -8 1
-15 -4 -15 -6 0 -10 7 -10 15 0 8 2 15 4 15 2 0 6 -7 10 -15z m480 0 c-4 -8
-8 -15 -10 -15 -2 0 -4 7 -4 15 0 8 4 15 10 15 5 0 7 -7 4 -15z m23 -7 c-3 -8
-6 -5 -6 6 -1 11 2 17 5 13 3 -3 4 -12 1 -19z m67 7 c3 -8 1 -15 -4 -15 -6 0
-10 7 -10 15 0 8 2 15 4 15 2 0 6 -7 10 -15z m749 -40 c88 -27 118 -40 140
-65 15 -17 27 -34 27 -38 0 -5 -35 -16 -77 -25 l-77 -17 -98 96 c-112 111
-115 110 85 49z m-2016 -7 c-3 -8 -6 -5 -6 6 -1 11 2 17 5 13 3 -3 4 -12 1
-19z m20 0 c-3 -8 -6 -5 -6 6 -1 11 2 17 5 13 3 -3 4 -12 1 -19z m650 0 c-3
-8 -6 -5 -6 6 -1 11 2 17 5 13 3 -3 4 -12 1 -19z m30 0 c-3 -8 -6 -5 -6 6 -1
11 2 17 5 13 3 -3 4 -12 1 -19z m469 -5 c-10 -10 -19 5 -10 18 6 11 8 11 12 0
2 -7 1 -15 -2 -18z m34 12 c0 -8 -4 -15 -10 -15 -5 0 -7 7 -4 15 4 8 8 15 10
15 2 0 4 -7 4 -15z m70 -5 c0 -5 -5 -10 -11 -10 -5 0 -7 5 -4 10 3 6 8 10 11
10 2 0 4 -4 4 -10z m-1410 -32 c0 -19 -20 -140 -26 -160 -3 -10 -12 -18 -21
-18 -12 0 -14 8 -9 45 l7 45 -80 0 c-80 0 -80 0 -83 28 -3 27 -3 27 -83 27
l-80 0 -3 -62 c-2 -35 -7 -63 -12 -63 -8 0 -34 77 -46 140 l-6 30 221 0 c170
0 221 -3 221 -12z m1945 -13 c66 -14 121 -25 122 -25 9 0 73 -64 73 -73 0 -6
-2 -8 -5 -5 -3 3 -45 -3 -93 -13 -128 -27 -123 -28 -183 49 -28 37 -56 73 -62
80 -14 18 10 16 148 -13z m-1905 6 c0 -12 -20 -25 -27 -18 -7 7 6 27 18 27 5
0 9 -4 9 -9z m30 -6 c0 -8 -4 -15 -10 -15 -5 0 -10 7 -10 15 0 8 5 15 10 15 6
0 10 -7 10 -15z m17 -7 c-3 -8 -6 -5 -6 6 -1 11 2 17 5 13 3 -3 4 -12 1 -19z
m57 7 c3 -8 1 -15 -4 -15 -6 0 -10 7 -10 15 0 8 2 15 4 15 2 0 6 -7 10 -15z
m676 0 c0 -8 -4 -15 -10 -15 -5 0 -10 7 -10 15 0 8 5 15 10 15 6 0 10 -7 10
-15z m520 0 c0 -8 -2 -15 -4 -15 -2 0 -6 7 -10 15 -3 8 -1 15 4 15 6 0 10 -7
10 -15z m17 -7 c-3 -8 -6 -5 -6 6 -1 11 2 17 5 13 3 -3 4 -12 1 -19z m50 0
c-3 -8 -6 -5 -6 6 -1 11 2 17 5 13 3 -3 4 -12 1 -19z m-737 -10 c-1 -43 -13
-58 -47 -58 -26 0 -36 5 -40 20 -5 19 -14 20 -122 20 l-116 0 -12 -27 c-7 -15
-13 -44 -13 -66 l0 -38 -52 3 -53 3 -7 50 c-4 28 -9 62 -12 78 l-5 27 239 0
c185 0 240 -3 240 -12z m-640 -23 c0 -8 -4 -15 -10 -15 -5 0 -10 7 -10 15 0 8
5 15 10 15 6 0 10 -7 10 -15z m40 6 c0 -6 -4 -13 -10 -16 -5 -3 -10 1 -10 9 0
9 5 16 10 16 6 0 10 -4 10 -9z m17 -13 c-3 -8 -6 -5 -6 6 -1 11 2 17 5 13 3
-3 4 -12 1 -19z m30 0 c-3 -8 -6 -5 -6 6 -1 11 2 17 5 13 3 -3 4 -12 1 -19z
m33 7 c0 -8 -4 -15 -10 -15 -5 0 -10 7 -10 15 0 8 5 15 10 15 6 0 10 -7 10
-15z m30 0 c0 -8 -4 -15 -8 -15 -5 0 -9 7 -9 15 0 8 4 15 9 15 4 0 8 -7 8 -15z
m530 0 c0 -8 -7 -15 -15 -15 -8 0 -15 7 -15 15 0 8 7 15 15 15 8 0 15 -7 15
-15z m30 0 c0 -8 -4 -15 -10 -15 -5 0 -10 7 -10 15 0 8 5 15 10 15 6 0 10 -7
10 -15z m17 -7 c-3 -8 -6 -5 -6 6 -1 11 2 17 5 13 3 -3 4 -12 1 -19z m30 0
c-3 -8 -6 -5 -6 6 -1 11 2 17 5 13 3 -3 4 -12 1 -19z m471 -10 c-3 -23 -6 -23
-155 -26 l-153 -3 0 -39 c0 -38 -2 -40 -30 -40 -26 0 -30 4 -35 38 -3 20 -8
47 -11 59 -4 20 1 22 43 26 27 2 115 4 196 5 l148 2 -3 -22z m302 -30 c16 -20
17 -26 4 -50 -20 -38 -71 -40 -79 -3 -17 82 -19 75 21 75 25 0 41 -7 54 -22z
m34 7 c-4 -8 -10 -12 -15 -9 -14 8 -10 24 6 24 9 0 12 -6 9 -15z m193 -28 l32
-42 -46 -8 c-80 -14 -133 -6 -156 24 -12 17 -17 34 -12 48 6 19 14 21 78 21
l72 -1 32 -42z m31 37 c19 -4 42 -20 57 -40 l26 -34 -33 0 c-26 0 -40 9 -66
40 -35 42 -34 44 16 34z m592 2 c0 -1 -28 -25 -62 -52 l-63 -49 38 47 c21 26
44 49 50 52 15 6 37 7 37 2z m-2380 -21 c0 -8 -7 -15 -15 -15 -8 0 -15 7 -15
15 0 8 7 15 15 15 8 0 15 -7 15 -15z m26 -12 c-10 -10 -19 5 -10 18 6 11 8 11
12 0 2 -7 1 -15 -2 -18z m31 5 c-3 -8 -6 -5 -6 6 -1 11 2 17 5 13 3 -3 4 -12
1 -19z m30 0 c-3 -8 -6 -5 -6 6 -1 11 2 17 5 13 3 -3 4 -12 1 -19z m37 7 c3
-8 1 -15 -3 -15 -5 0 -11 7 -15 15 -3 8 -1 15 3 15 5 0 11 -7 15 -15z m36 0
c0 -8 -4 -15 -10 -15 -5 0 -10 7 -10 15 0 8 5 15 10 15 6 0 10 -7 10 -15z
m510 0 c0 -8 -7 -15 -15 -15 -8 0 -15 7 -15 15 0 8 7 15 15 15 8 0 15 -7 15
-15z m34 0 c-4 -8 -8 -15 -10 -15 -2 0 -4 7 -4 15 0 8 4 15 10 15 5 0 7 -7 4
-15z m23 -7 c-3 -8 -6 -5 -6 6 -1 11 2 17 5 13 3 -3 4 -12 1 -19z m103 7 c0
-8 -4 -15 -10 -15 -5 0 -10 7 -10 15 0 8 5 15 10 15 6 0 10 -7 10 -15z m440
-2 c0 -10 -4 -14 -8 -8 -4 6 -11 13 -16 18 -5 4 -2 7 7 7 10 0 17 -8 17 -17z
m30 2 c0 -8 -4 -15 -10 -15 -5 0 -7 7 -4 15 4 8 8 15 10 15 2 0 4 -7 4 -15z
m27 -7 c-3 -8 -6 -5 -6 6 -1 11 2 17 5 13 3 -3 4 -12 1 -19z m73 1 c0 -5 -4
-9 -10 -9 -5 0 -10 7 -10 16 0 8 5 12 10 9 6 -3 10 -10 10 -16z m30 6 c0 -8
-4 -15 -10 -15 -5 0 -10 7 -10 15 0 8 5 15 10 15 6 0 10 -7 10 -15z m834 -45
c-26 -33 -51 -60 -56 -60 -4 0 -16 16 -25 36 -17 34 -17 36 2 47 11 7 43 17
70 23 28 7 51 12 53 13 2 0 -18 -26 -44 -59z m-2268 4 c-3 -9 -6 -20 -6 -25 0
-5 -7 -9 -15 -9 -9 0 -15 9 -15 25 0 19 5 25 21 25 15 0 19 -4 15 -16z m34 -9
c0 -14 -4 -25 -10 -25 -5 0 -10 11 -10 25 0 14 5 25 10 25 6 0 10 -11 10 -25z
m27 -12 c-3 -10 -5 -4 -5 12 0 17 2 24 5 18 2 -7 2 -21 0 -30z m30 0 c-3 -10
-5 -4 -5 12 0 17 2 24 5 18 2 -7 2 -21 0 -30z m43 12 c0 -14 -4 -25 -10 -25
-5 0 -10 11 -10 25 0 14 5 25 10 25 6 0 10 -11 10 -25z m38 -3 c2 -12 -1 -22
-7 -22 -6 0 -11 4 -11 9 0 5 -3 17 -7 27 -4 12 -2 15 8 12 8 -2 15 -14 17 -26z
m502 3 c0 -18 -5 -25 -20 -25 -21 0 -24 8 -14 34 10 25 34 19 34 -9z m31 12
c-1 -4 -1 -14 -1 -22 0 -8 -4 -15 -10 -15 -5 0 -10 12 -10 26 0 14 5 24 11 22
6 -2 10 -7 10 -11z m26 -24 c-3 -10 -5 -4 -5 12 0 17 2 24 5 18 2 -7 2 -21 0
-30z m75 12 c4 -17 1 -25 -8 -25 -8 0 -14 11 -14 25 0 14 4 25 9 25 5 0 11
-11 13 -25z m38 0 c0 -14 -4 -25 -10 -25 -5 0 -10 11 -10 25 0 14 5 25 10 25
6 0 10 -11 10 -25z m427 -7 c-3 -7 -5 -2 -5 12 0 14 2 19 5 13 2 -7 2 -19 0
-25z m33 7 c0 -14 -4 -25 -10 -25 -5 0 -10 11 -10 25 0 14 5 25 10 25 6 0 10
-11 10 -25z m140 0 c0 -14 -4 -25 -9 -25 -5 0 -11 11 -13 25 -4 17 -1 25 8 25
8 0 14 -11 14 -25z m700 20 c0 -3 -23 -19 -51 -36 -27 -17 -48 -33 -45 -36 2
-2 21 6 43 19 21 14 44 28 50 32 8 4 20 -5 32 -25 22 -36 19 -53 -8 -44 -9 2
-53 6 -99 6 -45 1 -82 6 -82 11 0 5 30 24 68 42 65 32 92 41 92 31z m-777 -30
c-7 -21 -13 -19 -13 6 0 11 4 18 10 14 5 -3 7 -12 3 -20z m207 -13 c-27 -4
-32 0 -24 22 6 16 8 16 26 -1 20 -18 20 -18 -2 -21z m-170 7 c0 -5 -4 -9 -10
-9 -5 0 -10 7 -10 16 0 8 5 12 10 9 6 -3 10 -10 10 -16z m-630 1 c0 -5 -5 -10
-11 -10 -5 0 -7 5 -4 10 3 6 8 10 11 10 2 0 4 -4 4 -10z"/>
</g>
</svg>
