<?xml version="1.0" standalone="no"?>
<!DOCTYPE svg PUBLIC "-//W3C//DTD SVG 20010904//EN"
 "http://www.w3.org/TR/2001/REC-SVG-20010904/DTD/svg10.dtd">
<svg version="1.0" xmlns="http://www.w3.org/2000/svg"
 width="298.000000pt" height="188.000000pt" viewBox="0 0 298.000000 188.000000"
 preserveAspectRatio="xMidYMid meet">

<g transform="translate(0.000000,188.000000) scale(0.100000,-0.100000)"
fill="#000000" stroke="none">
<path d="M920 1826 c0 -12 -11 -16 -50 -16 -27 0 -50 -4 -50 -8 0 -5 -26 -15
-57 -22 l-58 -13 62 -13 c35 -7 67 -16 73 -19 5 -3 10 1 10 9 0 17 12 19 48
10 21 -6 22 -11 22 -95 l0 -89 -94 0 c-53 0 -98 -4 -101 -10 -3 -5 -1 -10 4
-10 14 0 14 -55 0 -118 -9 -44 -14 -50 -41 -56 -25 -5 -28 -8 -18 -21 9 -11 8
-31 -5 -94 -14 -64 -22 -81 -39 -86 -18 -6 -19 -8 -3 -12 12 -3 17 -14 17 -36
0 -33 -33 -163 -44 -174 -3 -3 -31 13 -61 36 -58 44 -92 48 -43 6 l28 -24 -36
-103 c-46 -132 -127 -298 -209 -424 -35 -54 -62 -101 -60 -104 2 -3 23 -7 47
-9 23 -1 44 -3 46 -5 6 -7 -22 -56 -32 -56 -6 1 -40 7 -76 15 -90 20 -88 20
-92 -27 -3 -42 -2 -44 59 -85 78 -54 91 -75 63 -103 l-20 -20 1080 0 1080 0 0
39 c0 35 5 43 48 74 44 32 53 35 146 40 84 5 102 9 122 28 14 13 22 29 19 37
-2 7 -1 11 3 8 5 -3 42 29 83 71 41 41 92 84 114 94 22 10 33 19 25 19 -14 0
-725 707 -813 808 -35 40 -50 92 -27 92 6 0 10 5 10 10 0 6 -8 10 -19 10 -20
0 -44 70 -57 163 -6 39 -4 47 10 47 9 0 16 5 16 10 0 6 -47 10 -120 10 l-120
0 0 100 c0 60 -4 100 -10 100 -5 0 -10 -9 -10 -20 0 -16 -7 -20 -33 -20 -18 0
-56 -8 -83 -17 l-49 -18 50 -6 c28 -3 65 -4 83 -1 l32 5 0 -62 0 -61 -120 0
c-73 0 -120 -4 -120 -10 0 -5 7 -10 16 -10 17 0 15 -42 -7 -157 -9 -47 -13
-53 -35 -53 -13 0 -24 -4 -24 -10 0 -5 7 -10 15 -10 21 0 20 -81 -1 -146 -9
-27 -18 -51 -20 -53 -1 -1 -81 59 -176 135 -95 76 -174 139 -176 140 -8 5 -18
114 -10 114 4 0 8 5 8 10 0 6 -38 10 -95 10 l-94 0 -3 132 c-2 94 -7 133 -15
136 -7 2 -13 -3 -13 -12z m858 -243 c-10 -2 -26 -2 -35 0 -10 3 -2 5 17 5 19
0 27 -2 18 -5z m75 0 c-7 -2 -21 -2 -30 0 -10 3 -4 5 12 5 17 0 24 -2 18 -5z
m122 -194 c5 -5 -26 -9 -78 -9 -66 0 -87 3 -87 13 0 8 2 16 5 19 7 7 149 -13
160 -23z m-675 -94 c62 -49 129 -104 149 -122 l36 -31 -24 -26 c-13 -14 -35
-26 -49 -28 -27 -3 -44 -28 -20 -28 15 0 15 -9 -13 -252 -10 -95 -14 -108 -31
-108 -23 0 -32 23 -55 137 -14 67 -15 87 -5 90 17 6 15 23 -2 23 -18 0 -45 78
-53 153 -4 40 -2 57 6 57 6 0 11 5 11 10 0 6 -6 10 -14 10 -20 0 -39 62 -42
135 -2 49 -6 60 -23 67 -12 4 -21 12 -21 18 0 14 6 9 150 -105z m490 100 c0
-12 -16 -15 -92 -14 l-93 1 50 13 c73 19 135 19 135 0z m-870 -5 c0 -6 -27 -9
-62 -9 -54 1 -58 3 -28 9 53 11 90 11 90 0z m125 1 c37 -8 35 -9 -27 -10 -40
-1 -68 3 -68 9 0 12 39 12 95 1z m828 -38 c-7 -2 -19 -2 -25 0 -7 3 -2 5 12 5
14 0 19 -2 13 -5z m361 -288 c99 -198 99 -199 24 -133 -53 46 -64 61 -66 92
-2 21 1 36 7 36 6 0 11 7 11 15 0 8 -9 15 -20 15 -23 0 -65 67 -86 137 l-14
47 40 -39 c26 -26 62 -83 104 -170z m-1317 118 c-9 -8 -107 -11 -102 -2 3 4
28 7 56 7 28 1 49 -2 46 -5z m106 0 c-13 -2 -35 -2 -50 0 -16 2 -5 4 22 4 28
0 40 -2 28 -4z m-135 -30 c-16 -2 -40 -2 -55 0 -16 2 -3 4 27 4 30 0 43 -2 28
-4z m140 0 c-16 -2 -40 -2 -55 0 -16 2 -3 4 27 4 30 0 43 -2 28 -4z m762 -43
c0 -19 -7 -20 -109 -20 -124 0 -156 15 -54 25 38 3 77 7 88 9 58 9 75 6 75
-14z m140 -6 c12 -12 8 -14 -36 -14 -39 0 -55 5 -70 21 l-19 22 55 -7 c30 -4
62 -14 70 -22z m115 -5 c5 -5 -10 -9 -37 -9 -29 0 -50 6 -59 16 -12 14 -8 15
37 9 27 -4 53 -11 59 -16z m-502 -6 c-7 -2 -19 -2 -25 0 -7 3 -2 5 12 5 14 0
19 -2 13 -5z m-623 -133 c0 -6 -46 -9 -122 -8 -92 1 -110 3 -73 8 81 11 195
11 195 0z m200 0 c47 -6 39 -7 -57 -9 -70 0 -113 3 -113 9 0 11 88 12 170 0z
m1096 -82 l17 -33 -22 19 c-11 11 -21 25 -21 33 0 21 8 15 26 -19z m-2 -114
c3 -8 2 -12 -4 -9 -6 3 -10 10 -10 16 0 14 7 11 14 -7z m-1126 -61 c-27 -2
-69 -2 -95 0 -27 2 -5 3 47 3 52 0 74 -1 48 -3z m-5 -30 c-23 -2 -64 -2 -90 0
-26 2 -7 3 42 3 50 0 71 -1 48 -3z m1736 -157 c25 -13 54 -33 64 -44 18 -19
17 -20 -13 -31 -31 -10 -35 -8 -113 61 -45 39 -84 72 -86 74 -10 8 107 -40
148 -60z m-144 -7 c60 -20 102 -40 119 -58 l26 -27 -48 -15 -48 -16 -79 73
c-44 41 -76 74 -72 74 5 0 50 -14 102 -31z m-41 -80 c33 -13 61 -29 63 -35 2
-7 -10 -17 -28 -23 -30 -10 -35 -9 -83 36 -28 25 -55 50 -60 54 -13 12 36 -3
108 -32z m146 -84 c-67 -67 -88 -78 -50 -25 12 17 20 33 17 36 -2 2 -22 -21
-43 -53 -21 -32 -41 -62 -45 -67 -4 -4 -17 10 -28 32 l-20 40 62 28 c34 16 67
29 73 29 6 0 18 6 26 12 12 11 54 31 68 32 2 1 -24 -28 -60 -64z m-180 30 c19
-20 18 -20 -120 -68 l-139 -49 -35 27 c-30 23 -36 34 -36 66 0 35 2 38 33 42
17 3 87 4 155 3 107 -2 125 -4 142 -21z m-1150 -70 c42 -42 43 -45 20 -45 -24
0 -80 56 -80 79 0 20 16 11 60 -34z m-110 18 c33 -5 80 -37 80 -55 0 -4 -65
-8 -145 -8 l-145 0 0 -45 0 -45 -90 0 -90 0 0 86 0 87 178 -7 c97 -4 193 -9
212 -13z m-970 -24 c-12 -41 -14 -43 -44 -35 -23 6 -24 9 -14 36 8 24 16 30
38 30 27 0 28 -1 20 -31z m449 2 c62 -4 96 -10 99 -18 3 -10 -45 -13 -216 -13
-154 0 -221 -3 -224 -11 -3 -8 -20 -9 -55 -4 l-51 7 10 30 11 30 166 -7 c91
-4 208 -10 260 -14z m1477 -26 l29 -23 -25 -6 c-55 -14 -240 -32 -240 -24 0 5
7 22 15 38 13 25 22 29 62 32 115 8 129 7 159 -17z m-238 -20 c-13 -23 -16
-25 -27 -11 -9 10 -30 16 -57 16 -42 0 -44 -1 -44 -30 0 -29 -2 -30 -45 -30
-45 0 -45 0 -45 34 l0 34 98 7 c53 3 104 7 112 9 22 4 23 0 8 -29z m565 3 c13
-31 12 -33 -7 -40 -12 -3 -46 -6 -76 -7 l-55 0 30 25 c17 13 29 29 28 34 -2 5
3 7 11 4 8 -3 17 -1 21 5 12 21 35 11 48 -21z m-2463 -13 c0 -16 -6 -25 -15
-25 -9 0 -15 9 -15 25 0 16 6 25 15 25 9 0 15 -9 15 -25z m1630 -15 c0 -39 -1
-40 -35 -40 -33 0 -35 2 -35 34 0 32 3 35 33 39 17 2 33 5 35 5 1 1 2 -16 2
-38z m40 0 c0 -22 -4 -40 -10 -40 -5 0 -10 18 -10 40 0 22 5 40 10 40 6 0 10
-18 10 -40z m670 10 c-24 -20 -46 -30 -70 -30 -34 0 -34 1 25 29 77 38 89 38
45 1z m-2262 -8 c3 -20 0 -23 -20 -20 -15 2 -24 11 -26 26 -3 20 0 23 20 20
15 -2 24 -11 26 -26z m1470 -9 l-3 -37 -52 -3 -53 -4 0 35 c0 38 8 43 73 45
38 1 38 1 35 -36z m-1434 12 c-4 -8 -8 -15 -10 -15 -2 0 -4 7 -4 15 0 8 4 15
10 15 5 0 7 -7 4 -15z m36 -11 c0 -8 -7 -14 -15 -14 -15 0 -21 21 -9 33 10 9
24 -2 24 -19z m40 0 c0 -8 -4 -12 -10 -9 -5 3 -10 10 -10 16 0 5 5 9 10 9 6 0
10 -7 10 -16z m40 -9 c0 -8 -7 -15 -15 -15 -8 0 -15 7 -15 15 0 8 7 15 15 15
8 0 15 -7 15 -15z m90 -5 c0 -20 -22 -26 -54 -14 -30 12 -18 34 19 34 28 0 35
-4 35 -20z m1934 -36 c-37 -29 -44 -30 -44 -1 0 20 5 23 36 24 l37 1 -29 -24z"/>
</g>
</svg>
