<svg xmlns="http://www.w3.org/2000/svg" viewBox="0 0 67.11 104.08"><defs><style>.cls-1{fill:#fff;}</style></defs><title>building-outline</title><g id="Layer_2" data-name="Layer 2"><g id="Icons"><path class="cls-1" d="M33.52,104.06c-10.81,0-21.63,0-32.44,0-.88,0-1.15-.22-1.06-1.08a14.81,14.81,0,0,0,0-2.15c0-.49.13-.69.66-.69s1.56.32,2-.15.13-1.38.13-2.09c0-7.16,0-14.31,0-21.47,0-.8.17-1,1-1q29.8,0,59.6,0c.83,0,1,.23,1,1,0,7.55,0,15.1,0,22.64,0,.81.11,1.15,1,1.1,1.73-.08,1.73,0,1.73,1.73,0,2.14,0,2.14-2.12,2.14ZM47,92q0,3.68,0,7.35c0,.45,0,.84.63.82,1.34,0,2.68,0,4,0,.51,0,.58-.23.58-.65q0-7.6,0-15.19c0-.51-.15-.68-.67-.66-1.24,0-2.48.05-3.72,0-.72,0-.86.25-.85.9C47,87,47,89.52,47,92Zm-32-.05V99.4c0,.39-.09.79.55.77,1.37,0,2.74,0,4.12,0,.44,0,.56-.2.56-.6q0-7.65,0-15.29c0-.46-.16-.63-.63-.62-1.24,0-2.49.06-3.72,0-.78,0-.9.26-.89.95C15,87.05,14.94,89.5,14.94,92ZM25.61,92q0,3.67,0,7.35c0,.44,0,.84.63.82,1.34,0,2.68,0,4,0,.51,0,.58-.23.58-.65q0-7.59,0-15.19c0-.51-.14-.68-.66-.67-1.24,0-2.48.05-3.72,0-.72,0-.86.24-.86.9C25.63,87,25.61,89.52,25.61,92Zm10.7-.19c0,2.52,0,5,0,7.55,0,.64.17.85.82.82,1.24,0,2.48,0,3.72,0,.49,0,.7-.12.7-.65q0-7.6,0-15.19c0-.52-.18-.68-.68-.66-1.21,0-2.42,0-3.63,0-.71,0-1,.13-.94.9C36.34,87,36.31,89.39,36.31,91.81Z"/><path class="cls-1" d="M1.2,66.4l11.23-9.82a1.37,1.37,0,0,1,1-.33c2.06,0,4.12,0,6.17,0,.63,0,.85.17.84.83,0,1.6,0,3.2,0,4.8,0,.61.2.77.79.77q12.4,0,24.8,0c.64,0,.76-.24.75-.81,0-1.6,0-3.2,0-4.8,0-.59.16-.8.77-.79,2.09,0,4.18,0,6.27,0a1.37,1.37,0,0,1,1,.35l10.92,9.55s.05.11.11.24Z"/><path class="cls-1" d="M23.37,48.88c0-3.36,0-6.73,0-10.09,0-.66.14-.9.85-.9q9.36,0,18.71,0c.71,0,.86.23.86.9q0,10,0,20.09c0,.66-.14.89-.85.89q-9.36,0-18.71,0c-.7,0-.87-.22-.86-.88C23.39,55.54,23.37,52.21,23.37,48.88Zm15.75-2.36a5.55,5.55,0,1,0-5.47,5.6A5.56,5.56,0,0,0,39.12,46.52Z"/><path class="cls-1" d="M33.47,72.49H2.31c-1.37,0-1.23.18-1.23-1.28,0-1.78,0-1.78,1.73-1.78H64.63c1.6,0,1.42-.16,1.43,1.4s0,1.66-1.63,1.66Z"/><path class="cls-1" d="M24.6,29.05a1.81,1.81,0,0,1,.47-.91q3.64-5.4,7.29-10.79a2.42,2.42,0,0,0,.44-1.45q0-5.68,0-11.36a1.46,1.46,0,0,0-.52-1.26A1.8,1.8,0,0,1,32.21.58a1.87,1.87,0,0,1,2.72,0,1.79,1.79,0,0,1-.07,2.69,1.46,1.46,0,0,0-.52,1.26q0,5.63,0,11.27a2.71,2.71,0,0,0,.5,1.63q3.64,5.34,7.24,10.71a1.79,1.79,0,0,1,.46.91Z"/><path class="cls-1" d="M49.34,6.76C48.12,8,47,9.14,45.79,10.26c-.45.43-.51.7,0,1.15,1.21,1.11,2.38,2.28,3.58,3.46a1.22,1.22,0,0,1-1,.24c-3.4,0-6.79,0-10.19,0-.79,0-1-.23-1-1,0-2.25,0-4.5,0-6.76,0-.46,0-.81.64-.81,3.72,0,7.44,0,11.16,0C49.08,6.6,49.13,6.65,49.34,6.76Z"/><path class="cls-1" d="M33.53,35.08c-3.85,0-7.71,0-11.56,0-.73,0-1-.14-1-.95,0-2.07,0-2.07,2.12-2.07,7.32,0,14.63,0,21.95,0,.85,0,1.19.16,1.15,1.1-.08,1.92,0,1.92-2,1.92Z"/><path class="cls-1" d="M30.24,46.57a3.33,3.33,0,0,1,6.66-.06,3.33,3.33,0,1,1-6.66.06Zm5.21,0a1.88,1.88,0,0,0-3.75-.06,1.88,1.88,0,0,0,3.75.06Z"/></g></g></svg>