<?xml version="1.0" encoding="utf-8"?>
<!-- Generator: Adobe Illustrator 21.0.2, SVG Export Plug-In . SVG Version: 6.00 Build 0)  -->
<svg version="1.1" id="Layer_1" xmlns="http://www.w3.org/2000/svg" xmlns:xlink="http://www.w3.org/1999/xlink" x="0px" y="0px"
	 viewBox="0 0 612 792" style="enable-background:new 0 0 612 792;" xml:space="preserve">
<style type="text/css">
	.st0{opacity:0.51;fill:#050807;}
	.st1{fill:#FFD942;}
	.st2{fill:#FFFB47;stroke:#000000;stroke-width:0.25;stroke-miterlimit:10;}
	.st3{fill:#0A0A0A;stroke:#000000;stroke-miterlimit:10;}
	.st4{fill:#020500;stroke:#000000;stroke-width:4;stroke-miterlimit:10;}
	.st5{fill:#FFDBDC;stroke:#000000;stroke-width:0.75;stroke-miterlimit:10;}
	.st6{fill:#530D00;stroke:#000000;stroke-width:4;stroke-miterlimit:10;}
	.st7{fill:#0A0A0A;stroke:#000000;stroke-width:4;stroke-miterlimit:10;}
	.st8{fill:#D1BF22;}
	.st9{fill:#141414;}
	.st10{fill:#FFDBDC;}
	.st11{fill:#F0C6C5;}
	.st12{fill:#DEB7B4;}
	.st13{fill:none;stroke:#C28278;stroke-miterlimit:10;}
	.st14{fill:#E2F3FA;}
	.st15{fill:#F3FAFD;}
	.st16{fill:#5FA3FF;}
	.st17{fill:#010005;}
	.st18{fill:none;stroke:#231F20;stroke-miterlimit:10;}
	.st19{fill:#E3EFDF;stroke:#000000;stroke-miterlimit:10;}
	.st20{fill:#E3EFDF;stroke:#000000;stroke-width:0.25;stroke-miterlimit:10;}
	.st21{fill:none;stroke:#FFB1D1;stroke-width:3;stroke-miterlimit:10;}
	.st22{fill:none;stroke:#C28278;stroke-width:0.75;stroke-miterlimit:10;}
	.st23{fill:#A8A816;}
	.st24{fill:#030303;}
	.st25{opacity:0.19;fill:#1D0600;stroke:#000000;stroke-miterlimit:10;enable-background:new    ;}
	.st26{fill:#030303;stroke:#C3EEFF;stroke-miterlimit:10;}
	.st27{fill:#530D00;}
	.st28{fill:#FFFB47;}
	.st29{fill:#470F02;}
	.st30{fill:#0A0A0A;}
	.st31{fill:none;stroke:#000000;stroke-miterlimit:10;}
	.st32{fill:none;stroke:#000000;stroke-width:0.75;stroke-miterlimit:10;}
	.st33{fill:none;stroke:#DEB7B4;stroke-width:0.75;stroke-miterlimit:10;}
	.st34{fill:none;stroke:#000000;stroke-width:0.5;stroke-miterlimit:10;}
	.st35{fill:none;stroke:#000000;stroke-width:0.25;stroke-miterlimit:10;}
	.st36{fill:none;stroke:#C3EEFF;stroke-miterlimit:10;}
	.st37{opacity:0.5;fill:#070A08;}
</style>
<path class="st0" d="M353.6,603.3c-2.7-6.8-5.9-13.3-9.5-19.7c-6.7-12.1-14.7-26.2-25.4-35.8c0,0,0,0,0,0c-0.7-0.4-1.2-0.8-1.6-1.3
	c-1.1-0.9-2.3-1.8-3.4-2.7c-1.9-1.4-2.5-3.4-2.1-5.2c-0.8-0.4-1.6-0.7-2.4-1L272.6,456l-26.4,11.8c-1.6-4.9-4.7-9.9-9.1-14.4
	c-10.3-10.3-24-13.4-30.5-6.8c-6.5,6.5-3.5,19.9,6.5,30.2c4.9,0.3,5.8,6.6,2.6,9c-0.1,1.7-1,3.3-2.4,4.3c-2.9,1.9-5.5,3.8-8,6.2
	c-1.1,1.1-2.4,1.5-3.7,1.4l1.3,2.8c-1.3,0.8-2.5,1.7-3.6,2.9c1.2,1.1,2,2.8,1.6,4.8c-1.5,7.5-3.5,14.9-6,22.2c0.1,0.7,0,1.5-0.2,2.2
	c1.6,1,2.4,2.9,2.2,4.7c6.2,3.7,13.6,4.9,21,4.4c1.5-0.1,2.8,0.6,3.7,1.6c0.1-0.2,0.3-0.4,0.4-0.6l6.8,15.1c-0.3,1-0.6,2-0.8,3.1
	c1.3,0.4,2.4,1.5,2.8,3.4c2.1,12.5,5,24.9,9,37c0,0.1,0.1,0.2,0.1,0.3c0.4,0.5,0.7,1.1,0.9,1.7c0.6,1.6,0.9,2.3,1.6,3.9
	c0.6,1.3,1.2,2.6,1.9,3.9c0.2,0.4,0.3,0.8,0.4,1.1c1,0.4,2,1.1,2.8,1.8c0.8,0.7,1.2,1.6,1.3,2.6c2.9,0.5,4.2,3.2,3.9,5.7
	c2.4,1.6,2.7,5.4,0.9,7.6c9,8.1,18.7,11.5,26.2,8.1c13.5-6.1,15.2-31.7,3.8-57.2c-2.4-5.3-5.1-10.1-8.1-14.4l10-4.5
	c0,0.4,0.1,0.8,0.1,1.2c0.8,0,1.5,0.2,2.3,0.6c10.3,5.8,12.7,19.5,16.5,29.7c5.1,13.9,16.7,23.7,24.3,36.1c0.7,1.1,0.9,2.2,0.7,3.2
	c5.7,2.3,11,2.6,15.4,0.3C352.6,629.3,355.6,617.7,353.6,603.3z"/>
<path class="st0" d="M291.3,583.2c0.5,1.6,1.1,3.3,1.8,4.9C292.6,586.4,292,584.8,291.3,583.2z"/>
<polygon class="st1" points="309.5,432.9 347.1,428 347.1,421 311.4,428 "/>
<path d="M391,281"/>
<polygon class="st2" points="372,596 378,577.9 375,554.2 378,503.3 385,484.1 385,440 372,457 335,493.1 319,502.2 324,549.7 
	328,588.1 333,596 "/>
<polygon class="st3" points="319,271.5 311,285 352,267 339,267 "/>
<polygon class="st4" points="352,258 345,258 339,267 352,267 "/>
<polygon class="st3" points="339,428 373,396 379,389 363,336 368,299 385,277 397,285 419,330 428,347.5 432,367 432,378 425,417 
	416,428 391,442 374,453 339,453 "/>
<polygon class="st5" points="339,428 339,453 331.5,458 316,463 292,453 298,446 314,441 298,441 301,433 315.5,432.8 331.5,428 "/>
<path class="st6" d="M166.2,422.6"/>
<polygon class="st7" points="271,191 273,177 281,157 286,140 291,134 303,157 306,177 311,181 324,154 324,134 345,162.5 345,175 
	348,191 331.5,199 315.5,199 294.5,199 273,196 "/>
<polygon class="st7" points="303,157 309.5,161 316,157 324,154 311,181 306,177 "/>
<polygon class="st8" points="362,299 342,322 342,350.5 352,396 339,421 373,389 357,342 "/>
<polygon class="st9" points="324,134 324,154 311,181 315.5,190 331.5,162 "/>
<polygon class="st9" points="291,139.5 303,160.2 306,178.3 311,181.9 306,190 294.5,168.8 291,148.5 "/>
<polygon class="st10" points="348,191 331.5,199 294.5,199 273,196 274.7,211 268.7,211 268.7,214 266.7,218.4 268.3,220.9 
	269,233.2 272,235.1 273.7,250.1 276,258 281,255.9 288.1,264 307.3,271.5 311,281 317.4,271.5 320,269.7 337.6,265 344,255.9 
	348,255.9 350,250.1 348,232 350,232 352,229.7 352,223 354.7,217.9 356,211 352,209 349,209 349.7,199 350,193 "/>
<polygon class="st11" points="292.4,199 272.5,196 274.1,211 268.5,211 268.5,214 266.7,218.4 268.2,220.9 268.8,233.2 271.6,235.1 
	275.3,258 279.9,255.9 286.5,264 304.2,271.5 307.6,281 308.7,199 "/>
<path class="st7" d="M319,209h21.8H319z"/>
<path class="st7" d="M283.8,211l21.5-4L283.8,211z"/>
<polygon class="st12" points="321.3,211 321.6,222.8 323.6,224.8 335.3,223.1 339,223.1 337.6,211 "/>
<polygon class="st12" points="286.1,213.5 286.8,221.6 301,227.9 305.3,209 "/>
<path class="st13" d="M289.7,251.6c-0.8-0.4-1.4-1-1.8-1.7c-0.8-0.7-1.3-1.5-1.5-2.5c-2.1-2-2-5.9,0.3-7.7c0.2-1,0.7-1.9,1.5-2.5
	c-0.1-0.3-0.2-0.5-0.3-0.8l-3.2,6c0.1,0.5,0.1,1,0,1.5c0.1,0.5,0.1,1,0,1.5l1.6,3.1c0,0,2.7,2.9,4.1,5.2c0.1-0.1,0.2-0.2,0.4-0.3
	c0-0.2,0-0.4-0.1-0.6C290.2,252.5,289.9,252.1,289.7,251.6z"/>
<path class="st13" d="M333.6,230.3l-0.3,0.3c0.2,0.3,0.3,0.6,0.4,1c0.7,0.6,1.3,1.3,1.6,2.2c1.9,1.7,2.1,4.8,0.7,6.9
	c0.1,0.8-0.1,1.6-0.3,2.4c0,0.7,0,1.4-0.2,2.1h0.1l1.9-9.1L333.6,230.3z"/>
<path class="st14" d="M301.2,221.1l-0.7-1.1l-1.5-1.7c-0.4,0-0.8-0.1-1.2-0.2c-0.5-0.1-0.9-0.3-1.2-0.6c-0.4,0-0.9-0.1-1.3-0.2
	c-0.6-0.2-1.1-0.4-1.5-0.7l-7.3,1c0.1,0.9,0,1.9-0.4,2.8l0.6,0.6c0.3,0,0.6,0.1,0.9,0.2c1,0.3,1.7,0.8,2.2,1.4
	c2.6,0.7,5.4,0.7,7.9,1.8h2.3c0.1-0.2,0.2-0.4,0.4-0.6C300.7,222.9,300.9,222,301.2,221.1z"/>
<path class="st15" d="M337.2,218l-7.3-1c-0.4,0.3-0.9,0.5-1.5,0.7c-0.5,0.1-0.9,0.2-1.3,0.2c-0.4,0.2-0.8,0.4-1.2,0.6
	c-0.4,0.1-0.8,0.2-1.2,0.2l-1.5,1.7l-1.6,2.4c0.9,0.4,1.5,1.1,2,2h2.3c2.5-1.1,5.4-1,7.9-1.8c0.5-0.6,1.3-1.1,2.2-1.4
	c0.3-0.1,0.6-0.2,0.9-0.2l0.6-0.6C337.2,219.9,337.1,218.9,337.2,218z"/>
<g>
	<path class="st16" d="M329.1,216.8c-2.2,0-4,1.6-4,3.7s1.8,3.7,4,3.7s4-1.6,4-3.7S331.3,216.8,329.1,216.8z M329.1,222.8
		c-1.4,0-2.5-1-2.5-2.3s1.1-2.3,2.5-2.3s2.5,1,2.5,2.3S330.5,222.8,329.1,222.8z"/>
	<ellipse class="st17" cx="329.1" cy="220.5" rx="2.5" ry="2.3"/>
</g>
<path class="st18" d="M319.7,231.7l-2.5-6.4l-2-7.4l-0.5,1c0.9,1.1,1.3,2.6,1.1,4c0.5,0.8,0.8,1.7,0.9,2.7c0.9,1.1,1.3,2.6,1.1,4
	c0.2,0.3,0.3,0.6,0.4,1c0.3,0.4,0.5,0.8,0.6,1.2c0.5,0.4,0.8,0.9,1.1,1.4L319.7,231.7z"/>
<path class="st18" d="M320.8,234.6c-0.4,0.3-0.9,0.5-1.5,0.6c-0.9,1.5-2.6,2.7-5.4,2.7c-0.3,0-0.6,0-0.8,0c-0.3,0-0.5,0-0.8,0
	c-0.8,0-1.4-0.1-2-0.3c-0.6,0.2-1.3,0.3-2.1,0.3c-0.1,0-0.3,0-0.4,0s-0.3,0-0.4,0c-4.8,0-6.7-3.6-5.7-6.5c-0.1-0.1-0.2-0.1-0.2-0.2
	l-0.2,0.4v3.7c1,0.6,1.7,1.5,2,2.5l3,0.8c0.7-0.4,1.5-0.6,2.5-0.6c1.1,0,2.1,0.3,2.8,0.8c0.4-0.1,0.8-0.2,1.2-0.2
	c0.2,0,0.4,0,0.6,0.1c0.2,0,0.5-0.1,0.7-0.1c0.5,0,1,0.1,1.5,0.2l5.9-3.6v-0.8C321.2,234.6,321,234.6,320.8,234.6z"/>
<polygon class="st19" points="295.2,250.5 304.1,253.1 314.6,251.8 325.1,247.2 331.2,238.1 322.3,239.8 314.6,243.8 295.6,243.8 
	293.1,247.2 "/>
<polygon class="st20" points="294.1,250.1 303,252.7 313.5,251.4 324,246.8 330.1,237.7 321.3,255.9 305.3,262.5 298,258 "/>
<polygon class="st21" points="294.5,243.3 302.8,243.3 313.5,243.3 321.3,239.4 330.1,237.7 326.7,246.8 321.3,255.9 315.5,258 
	305.3,262.5 298,258 292,246.8 "/>
<g>
	<path class="st16" d="M294.5,216.8c-2.2,0-4,1.6-4,3.7s1.8,3.7,4,3.7s4-1.6,4-3.7S296.7,216.8,294.5,216.8z M294.5,222.8
		c-1.4,0-2.5-1-2.5-2.3s1.1-2.3,2.5-2.3s2.5,1,2.5,2.3S295.9,222.8,294.5,222.8z"/>
	<ellipse class="st17" cx="294.5" cy="220.5" rx="2.5" ry="2.3"/>
</g>
<path class="st12" d="M275.7,225.5l10.5,6.5l-2.4,11.7l9.9,18.8c0,0-14.3-8.2-14.3-9.8c0-1.7-3.7-16.7-3.7-16.7V225.5z"/>
<polygon class="st12" points="274.7,211 268.7,211 268.7,214 266.7,218.4 268.3,220.9 269,233.2 272,235.1 "/>
<polygon class="st12" points="306,217 301.4,231.2 303.2,237.9 307.7,213.3 "/>
<polygon class="st12" points="273,196 274.2,207 304.5,201.5 331.5,201.5 345.5,193.3 331.5,199 294.5,199 "/>
<polygon class="st12" points="307.3,271.5 317.4,271.5 311,281 "/>
<polygon class="st11" points="335.3,231.2 345.5,227.9 345.5,238.5 340.4,258 325.2,265.7 331.6,253.1 339,241.7 "/>
<path class="st22" d="M314.7,267c-0.8,1-2,1.7-3.7,1.7s-2.9-0.7-3.7-1.7h-1.6l4,2h3.7l3-2H314.7z"/>
<polygon class="st23" points="279.5,260.3 283.8,262.5 284.7,273 278,269 273,271.5 273,265.7 "/>
<polygon class="st24" points="291,139.5 287.7,196 274.7,193.3 273,190 274.7,176.7 287.7,141 291,138 "/>
<polygon class="st24" points="289.3,167.5 299.7,196 287.7,196 "/>
<path class="st24" d="M371.3,309.7c-0.3,1.3-3,26-3,26l14.3,52.3l11.7-19.7L371.3,309.7z"/>
<polygon class="st24" points="345.5,430.4 383.3,392 391,398 "/>
<circle cx="319" cy="294" r="2.8"/>
<circle cx="319" cy="319" r="2.8"/>
<circle cx="319" cy="345" r="2.8"/>
<circle cx="319" cy="369" r="2.8"/>
<circle cx="319" cy="394.8" r="2.8"/>
<circle cx="319" cy="420.4" r="2.8"/>
<polygon class="st25" points="273.1,225.5 287.7,233.2 297,233.2 286.6,239.7 297,262.5 305.7,267 316.2,262.5 324,260.3 
	329.6,253.1 336,240.6 335.2,233.7 326.7,233.2 335.3,227.9 348,224.4 348.7,238.5 350,250.1 348,255.9 344,255.9 337.6,265 
	320,269.7 307.3,271.5 286.5,264 281,258 275.3,258 272,235.1 "/>
<polygon class="st11" points="345.5,209 348,230.3 348,211 "/>
<polygon class="st11" points="324.7,440 331.3,458 318.2,461.7 296.7,452.2 302.7,445.6 322,440 "/>
<path class="st24" d="M331.3,601.5l2.2,8.5v7.5l-3.2,7v8.7c0.7,0.2,1.2,0.4,1.7,0.8c0.8-0.6,1.8-1,3-1c0.8,0,1.4,0.1,2,0.4
	c0.6-0.2,1.2-0.4,2-0.4c1.4,0,2.5,0.5,3.3,1.3c0.5-0.2,1-0.3,1.7-0.3c1.5,0,2.6,0.5,3.4,1.3l0.6-2.3L331.3,601.5z"/>
<polygon class="st8" points="339,453 341.3,489.4 319,507 315.5,485 316,463 "/>
<polygon class="st3" points="350.8,601.5 385,626 394.3,617.5 373.8,595 358.9,600.5 "/>
<path class="st26" d="M356,608l20-7.5L356,608z"/>
<path class="st26" d="M376,600.5L365.2,619L376,600.5z"/>
<path class="st26" d="M365.2,619l19.8-11L365.2,619z"/>
<path class="st26" d="M385,608l-6,13.7L385,608z"/>
<path class="st26" d="M379,621.7l6.5-2.7L379,621.7z"/>
<g id="XMLID_1_">
	<g>
		<path class="st24" d="M399,626.5v10l-13.5,5.5l-11.7,1.5l-11.8-2l-14-8.5l-16.7-31.5l1.4-4.4l5.1,4.4h13c2.7,0.5,5.6-0.2,7.9-1
			l0.2,0l14.9-5.5l2.2,5.5l9,7.5l9.3,9.5L399,626.5z"/>
		<polygon class="st27" points="385.6,445.5 385,458 379,453 		"/>
		<polygon class="st1" points="385,277 379,281 368,299 363,329 363,342 379,389 373,396 345,421 311,428 311,285 352,267 		"/>
		<polygon class="st27" points="385,458 339.8,500.5 319,513 319,507 348,484.4 379,453 		"/>
		<polygon class="st28" points="379,453 352,480 339,491.4 319,507 315.5,485 316,463 331.5,458 339,453 		"/>
		<path class="st27" d="M370.8,590.4l3,4.5l-10,3.3c0,0-2.1,1.3-5.1,2.3l-7.9,1l-4-6.5l-3.4-1l0-0.1l3.4,1c0,0,10-1.5,14-3.5
			S370.8,590.4,370.8,590.4z"/>
		<path class="st24" d="M350.8,601.5l7.9-1C356.4,601.3,353.5,602,350.8,601.5z"/>
		<path class="st29" d="M346.8,595l4,6.5c-1.4-0.2-2.8-0.3-4.2-0.4l-6.1-0.6L333,596l-2.1-2.9l0.9-2.6l11.6,3.5v0L346.8,595z"/>
		<path class="st24" d="M350.8,601.5h-13c0,0,4.2-0.6,8.8-0.4L350.8,601.5z"/>
		<path class="st29" d="M350.8,601.5l-4.2-0.4C348,601.2,349.4,601.3,350.8,601.5z"/>
		<path class="st24" d="M340.5,600.5l6.1,0.6c-4.7-0.2-8.8,0.4-8.8,0.4l-5.1-4.4l0.3-1.1L340.5,600.5z"/>
		<polygon class="st8" points="341.3,499.6 345.5,556 343.4,593.9 331.9,590.4 335,589 330.3,510 323.5,513 331.8,590.4 
			331.8,590.5 328,589 323.5,546.8 319,513 335,505 339.8,500.5 		"/>
		<polygon class="st8" points="343.4,593.9 343.4,594 331.8,590.5 331.9,590.4 		"/>
		<polygon class="st8" points="343.4,594 343.4,594 331.8,590.5 		"/>
		<polygon class="st8" points="319,513 339.8,500.5 335,505 		"/>
		<polygon class="st23" points="330.3,510 335,589 331.9,590.4 331.8,590.4 331.8,590.4 323.5,513 		"/>
		<polygon class="st29" points="330.9,593.1 333,596 330.4,595.1 330.3,595 		"/>
		<polygon class="st29" points="333,596 332.7,597.1 330.4,595.1 		"/>
		<polygon class="st23" points="331.9,590.4 331.8,590.5 331.8,590.4 331.8,590.4 		"/>
		<polygon class="st8" points="331.8,590.4 331.8,590.5 331.8,590.5 		"/>
		<polygon class="st27" points="331.8,590.5 330.9,593.1 330.9,593.1 331.8,590.5 		"/>
		<polygon class="st27" points="330.9,593.1 330.3,595 330.9,593.1 		"/>
		<polygon class="st27" points="330.9,593.1 330.3,595 328,589 		"/>
		<polygon class="st27" points="330.4,595.1 319,591 330.3,595 		"/>
		<polygon class="st29" points="328,589 330.3,595 319,591 319,585 		"/>
		<path class="st27" d="M319,585v6h-8c-3.1,0-4.7,2.4-4.8,4.8L306,596l-5-5l10-6H319z"/>
		<rect x="311" y="535" class="st29" width="8" height="50"/>
		<rect x="311" y="519" class="st27" width="8" height="16"/>
		<polygon class="st27" points="319,513 319,519 311,519 306,513 319,507 		"/>
		<path class="st30" d="M315.5,485l3.5,22C314,502,315.5,485,315.5,485z"/>
		<path class="st30" d="M319,507l-13,6l-15-17l-24.3-20.4l0,0L240,446h9l24,7l8,10l30,4l4.5,18C315.5,485,314,502,319,507z"/>
		<polygon class="st30" points="316,463 315.5,485 311,467 		"/>
		<polygon class="st11" points="316,463 311,467 281,463 273,453 281,428 292,437.5 298.5,437.5 287.7,445.1 284.7,461.7 311,465.5 
			313.4,461.9 		"/>
		<polygon class="st12" points="314,440.8 313.3,441 298,441 298.3,440.8 		"/>
		<polygon class="st11" points="314,441 298,446 292.5,452.4 292,452.2 298,445.6 313.3,441 		"/>
		<polygon class="st12" points="313.5,461.7 313.4,461.9 292,453 292.5,452.4 		"/>
		<polygon class="st12" points="313.4,461.9 311,465.5 284.7,461.7 287.7,445.1 298.5,437.5 298,440.8 298.3,440.8 298,441 
			313.3,441 298,445.6 292,452.2 292.5,452.4 292,453 		"/>
		<polygon class="st30" points="311,535 311,585 301,591 294.5,600.5 281.5,600.5 277,600.5 257,600.5 257,581 246,564 243,552 
			246,527 240,507 253.3,521 253.3,554 266.7,580 266.7,590 273,589 246,474 240,507 240,499 240,472 240,458 262,483 291,507 
			306,519 311,519 		"/>
		<polygon class="st30" points="311,285 311,428 308.6,428 309.5,425.7 295.5,428 281,428 244,396 263.4,411.7 266.7,404.7 
			275.7,346 264.5,331 273,331.7 279.5,302.3 261.3,274.9 271,273 281,273 		"/>
		<polygon class="st8" points="306,273 311,285 281,273 271,273 271,263 281,258 288,265.5 		"/>
		<polygon class="st27" points="306,513 311,519 306,519 291,507 262,483 266.7,475.6 291,496 		"/>
		<polygon class="st30" points="309.5,425.7 308.6,428 295.5,428 		"/>
		<polygon class="st30" points="308.6,428 307.4,431.1 287.3,429.6 286.7,429.4 295.5,428 		"/>
		<path class="st27" d="M306,596l-1.4,4.6c-2,1-2.8,3.4-2.4,5.5L273,610l4-9.5h4.5h13l6.5-9.5L306,596z"/>
		<path class="st24" d="M303,613.9v22.6L291,608l11.3-1.9c0.1,0.6,0.4,1.3,0.7,1.8v0.2C301.9,609.8,301.9,612.2,303,613.9z"/>
		<polygon class="st11" points="301,433 303,437.5 298.5,437.5 292,437.5 281,428 286.7,429.4 286.3,429.5 287.3,429.6 		"/>
		<polygon class="st30" points="291,608 303,636.5 288,643.5 281.5,643.5 258,653 253.3,643.5 273,610 		"/>
		<polygon class="st11" points="303,437.5 298.3,440.8 298,440.8 298.5,437.5 		"/>
		<polygon class="st24" points="303,636.5 292,643.5 288,643.5 		"/>
		<path class="st24" d="M302.3,606.1L291,608l-18,2L302.3,606.1C302.3,606.1,302.3,606.1,302.3,606.1z"/>
		<polygon class="st24" points="288,643.5 275.5,646 266.7,650.5 258,653 281.5,643.5 		"/>
		<polygon class="st30" points="286.7,429.4 287.3,429.6 286.3,429.5 		"/>
		<path class="st8" d="M281,428l-8,25l-24-7h-9h-17l-17.5-10L191,419l-11-10v-13l5-5v-19h5v-6v-7l6-20l8-13v-9l7-8l20-28l15.9,13.6
			l16.5,35L244,396L281,428z M266.7,424.7l6.3,2.2l-33-27.6l-6,3.7L266.7,424.7z M266.7,445.5L252,428l-23.7-13L202,396l9-13l4-32.5
			l16-31.5l-5-20l-14,21v11l-14,36v11h-8v11v13l18,20.6l18,14.9L266.7,445.5z M251,348.8l7-19.4c0,0-10.3-3.4-14-5.1v24.5L234,377
			l4,11L251,348.8z"/>
		<polygon class="st24" points="261.3,274.9 279.5,302.3 273,331.7 264.5,331 263.4,329.5 263.4,329.5 251,300 242,288 231,281 		
			"/>
		<polygon class="st29" points="277,600.5 273,610 259.8,606.7 257,606 257,600.5 		"/>
		<polygon class="st24" points="264.5,331 275.7,346 266.7,404.7 263.4,411.7 244,396 264,331 		"/>
		<polygon class="st24" points="246,474 273,589 266.7,590 266.7,580 253.3,554 253.3,521 240,507 		"/>
		<path class="st24" d="M240,629.5l19.8-3.5l-12.5-2.7c0.1-0.3,0.2-0.6,0.3-0.9l19.3-7.5l-10-2.9l2.8-5.3L273,610l-19.7,33.5
			l4.7,9.5l-12,2.5h-6l-6-2.5l-3.5-6v-3.5l3.5-11L240,629.5z"/>
		<polygon class="st1" points="273,426.9 266.7,424.7 234,403 240,399.3 		"/>
		<path class="st24" d="M267,614.9l-19.3,7.5c0.1-0.5,0.2-1,0.2-1.5l1.7-1.9l7.5-7L267,614.9z"/>
		<polygon class="st23" points="252,428 266.7,445.5 226,437.5 208,422.6 190,402 190,389 190,378 198,378 198,367 212,331 212,320 
			226,299 231,319 215,350.5 211,383 202,396 228.3,415 		"/>
		<polygon class="st29" points="240,446 266.7,475.6 266.7,475.6 260,470 250,458 		"/>
		<polygon class="st29" points="266.7,475.6 262,483 240,458 240,446 250,458 260,470 		"/>
		<polygon class="st24" points="264.5,331 264,331 263.4,329.5 263.4,329.5 		"/>
		<polygon class="st24" points="263.4,329.5 264,331 263.4,329.6 		"/>
		<polygon class="st24" points="263.4,329.6 264,331 244,396 		"/>
		<polygon class="st24" points="251,300 263.4,329.5 263.4,329.6 246.9,294.6 231,281 242,288 		"/>
		<polygon class="st24" points="261.3,274.9 261.3,274.9 231,281 		"/>
		<path class="st24" d="M259.8,626l-19.8,3.5l3.2-3.5c2.1-0.1,3.4-1.2,4.1-2.7L259.8,626z"/>
		<path class="st1" d="M258,329.4l-7,19.4L238,388l-4-11l10-28.2v-24.5C247.7,326,258,329.4,258,329.4z"/>
	</g>
	<g>
		<line class="st31" x1="271" y1="273" x2="261.3" y2="274.9"/>
		<line class="st31" x1="308.6" y1="428" x2="311" y2="428"/>
		<line class="st31" x1="281" y1="428" x2="295.5" y2="428"/>
		<line class="st32" x1="316" y1="463" x2="313.4" y2="461.9"/>
		<line class="st32" x1="298.3" y1="440.8" x2="303" y2="437.5"/>
		<polyline class="st32" points="292.5,452.4 298,446 314,441 313.3,441 		"/>
		<polyline class="st33" points="287.3,429.6 301,433 303,437.5 298.5,437.5 292,437.5 281,428 286.7,429.4 		"/>
		<line class="st34" x1="306" y1="596" x2="306.2" y2="595.8"/>
		<polyline class="st34" points="379,453 348,484.4 319,507 		"/>
		<line class="st34" x1="339.8" y1="500.5" x2="385" y2="458"/>
		<line class="st34" x1="319" y1="535" x2="319" y2="519"/>
		<line class="st34" x1="330.9" y1="593.1" x2="328" y2="589"/>
		<polyline class="st34" points="311,591 319,591 330.4,595.1 		"/>
		<polyline class="st31" points="304.6,600.6 306,596 301,591 		"/>
		<polyline class="st31" points="331.8,590.5 330.9,593.1 330.3,595 		"/>
		<path class="st31" d="M358.7,600.5c2.9-1,5.1-2.3,5.1-2.3l10-3.3l-3-4.5c0,0-6-1-10,1s-14,3.5-14,3.5l-3.4-1"/>
		<polygon class="st35" points="311,285 311,428 345,421 373,396 379,389 363,342 363,329 368,299 379,281 385,277 352,267 		"/>
		<polygon class="st35" points="271,273 271,263 281,258 288,265.5 306,273 311,285 281,273 		"/>
		<polyline class="st35" points="273,453 281,428 244,396 		"/>
		<polyline class="st35" points="231,281 211,309 204,317 204,326 196,339 190,359 190,366 190,372 185,372 185,391 180,396 
			180,409 191,419 205.5,436 223,446 240,446 		"/>
		<polyline class="st35" points="316,463 331.5,458 339,453 379,453 352,480 339,491.4 319,507 		"/>
		<polyline class="st31" points="311,535 311,519 306,519 291,507 262,483 		"/>
		<polyline class="st31" points="277,600.5 281.5,600.5 294.5,600.5 301,591 311,585 		"/>
		<polyline class="st31" points="240,458 240,472 240,499 240,507 246,527 243,552 246,564 257,581 257,600.5 		"/>
		<polyline class="st31" points="311,467 281,463 273,453 249,446 240,446 		"/>
		<line class="st31" x1="319" y1="507" x2="315.5" y2="485"/>
		<polyline class="st31" points="266.7,475.6 291,496 306,513 		"/>
		<polyline class="st31" points="273,610 253.3,643.5 258,653 281.5,643.5 288,643.5 303,636.5 291,608 		"/>
		<polyline class="st36" points="257,612 267,614.9 247.7,622.4 		"/>
		<polyline class="st36" points="240,629.5 259.8,626 247.3,623.3 		"/>
		<line class="st36" x1="249.9" y1="636.5" x2="240" y2="629.5"/>
		<polygon class="st34" points="379,453 385.6,445.5 385,458 		"/>
		<polygon class="st34" points="306,513 311,519 319,519 319,513 319,507 		"/>
	</g>
</g>
<path class="st37" d="M139.8,428.1c-1.2,0.5-2.3,1-3.5,1.5c0.9,0.6,1.9,1.1,2.9,1.5c0.3-0.2,0.5-0.3,0.8-0.4
	C139.9,429.8,139.8,428.9,139.8,428.1z"/>
<path class="st37" d="M90.3,426.4c0.2,1.1,0.3,2.2,0.4,3.3c0.6-0.2,1.2-0.3,1.8-0.3c-0.4-0.7-0.8-1.4-1.2-2.1
	C91,427,90.7,426.7,90.3,426.4z"/>
<path class="st37" d="M73.2,407.1c0.3-0.4,0.7-0.8,1.1-1.1c-1-0.5-2.1-1-3.1-1.4C72,405.2,72.7,406.1,73.2,407.1z"/>
</svg>
