<svg xmlns="http://www.w3.org/2000/svg" viewBox="0 0 80.63 91.05"><defs><style>.cls-1{fill:#fff;}</style></defs><title>head-outline</title><g id="Layer_2" data-name="Layer 2"><g id="Icons"><path class="cls-1" d="M78.49,25.71a34.59,34.59,0,0,1,1.25,21.38,29.3,29.3,0,0,1-9.1,14.7,6.35,6.35,0,0,0-2.08,7,5,5,0,0,1-1.06,4.65,94.72,94.72,0,0,1-8.18,9.7,29.81,29.81,0,0,1-11,7.29A16.21,16.21,0,0,1,36.68,90a7.25,7.25,0,0,1-3.51-3.21,42.31,42.31,0,0,1-3-6.17,1.4,1.4,0,0,0-1.58-1c-2.23.06-4.47,0-6.7,0v.19H15.25a6.79,6.79,0,0,1-6.68-8c.17-.92.31-1.85.52-2.77a1.65,1.65,0,0,0-.68-1.84c-1.85-1.42-2-1.88-1.34-4.12.09-.31,0-.4-.22-.56A3,3,0,0,1,6,58.36c.29-.58.59-1.15.86-1.73.34-.74.19-1-.6-1.12l-2.45-.28a4,4,0,0,1-3-6c.76-1.29,1.62-2.52,2.46-3.76C4.77,43.22,6.33,41,7.62,38.7a5,5,0,0,0,.63-3.95,7.82,7.82,0,0,1,.32-4.68c1.17-3.39,1.77-6.94,3.1-10.28,3-7.59,7.87-13.51,15.47-16.91C32.42.52,38,0,43.7.35A41.57,41.57,0,0,1,60.55,4.7C69.36,9.27,75.1,16.52,78.49,25.71Zm.2,13.22a32.6,32.6,0,0,0-.53-6.21c-1.92-10-6.68-18.23-15.15-24-8.25-5.63-17.56-7.18-27.29-6-10.53,1.33-17.6,7.37-21.62,17.07-1.56,3.75-2.36,7.74-3.55,11.61a5,5,0,0,0-.11,3c.64,2.05-.05,3.81-1,5.55a57.52,57.52,0,0,1-4,6.2,44.84,44.84,0,0,0-2.65,3.95,1.92,1.92,0,0,0,1.46,3c.84.13,1.69.19,2.54.29A2.66,2.66,0,0,1,9,57.23c-.26.59-.57,1.16-.86,1.74-.67,1.34-.67,1.34.51,2.22s1.35,1.05.57,2.44c-.46.83-.41,1.39.41,1.9a3.56,3.56,0,0,1,1.57,4.21c-.16.71-.22,1.45-.41,2.16a4.81,4.81,0,0,0,4.9,5.85c4.38-.06,8.76-.11,13.14-.2a3.08,3.08,0,0,1,3.16,2,59.76,59.76,0,0,0,3,6.07,4.91,4.91,0,0,0,2.2,2.21,14.18,14.18,0,0,0,8.27,1.07A20.91,20.91,0,0,0,55,84.18c4.31-3.5,7.64-7.87,10.91-12.31a2.86,2.86,0,0,0,.52-2.61c-.86-3.54-.31-6.52,2.69-9.18A27.74,27.74,0,0,0,78.68,38.93Z" transform="translate(-0.25 -0.25)"/><path class="cls-1" d="M78.15,32.72a32.6,32.6,0,0,1,.53,6.21,27.74,27.74,0,0,1-9.53,21.15c-3,2.66-3.54,5.64-2.69,9.18a2.86,2.86,0,0,1-.52,2.61c-3.27,4.43-6.6,8.8-10.91,12.31a20.91,20.91,0,0,1-9.6,4.76,14.18,14.18,0,0,1-8.27-1.07A4.91,4.91,0,0,1,35,85.66a59.76,59.76,0,0,1-3-6.07,3.08,3.08,0,0,0-3.16-2c-4.38.1-8.76.14-13.14.2a4.81,4.81,0,0,1-4.9-5.85c.18-.71.24-1.45.41-2.16a3.56,3.56,0,0,0-1.57-4.21c-.82-.52-.88-1.07-.41-1.9.77-1.39.71-1.47-.57-2.44S7.42,60.3,8.09,59c.29-.58.6-1.15.86-1.74a2.66,2.66,0,0,0-2.2-3.83c-.85-.11-1.7-.17-2.54-.29a1.92,1.92,0,0,1-1.46-3A44.84,44.84,0,0,1,5.4,46.14a57.52,57.52,0,0,0,4-6.2c.93-1.74,1.62-3.5,1-5.55a5,5,0,0,1,.11-3c1.19-3.87,2-7.86,3.55-11.61,4-9.7,11.1-15.74,21.62-17.07,9.73-1.23,19,.33,27.29,6C71.47,14.49,76.23,22.74,78.15,32.72Z" transform="translate(-0.25 -0.25)"/></g></g></svg>