<svg xmlns="http://www.w3.org/2000/svg" viewBox="0 0 102 88.91"><defs><style>.cls-1{fill:#fff;}</style></defs><title>ship-outline</title><g id="Layer_2" data-name="Layer 2"><g id="Icons"><path class="cls-1" d="M47.37,1a16.56,16.56,0,0,1,5,3.71c.52.57,1,1.18,1.49,1.77a2.63,2.63,0,0,1-1-.15,31.54,31.54,0,0,0-4.63-.91c-1.88-.11-2.14.3-2.14,2.18,0,.43,0,.85,0,1.28a3.29,3.29,0,0,0,.21.7,6.45,6.45,0,0,1,.57,1.88,7.48,7.48,0,0,0,.75,3.44c2.22,4.59,4.43,9.18,6.67,13.76a1.2,1.2,0,0,0,.76.55,38,38,0,0,0,16.69-.3A1.64,1.64,0,0,0,73,28c1.41-2.78,2.86-5.54,4.31-8.3A9.82,9.82,0,0,0,78.51,15q0-4.42,0-8.85c0-.29,0-.58,0-.7l1.56,1a28.53,28.53,0,0,1,3.22,2c1.23,1,2.3,2.24,3.44,3.38l-.19.19c-1-.32-2-.67-3-.94a6.23,6.23,0,0,0-4.09,0c-.26.1-.6.43-.6.66a19.4,19.4,0,0,0,1,7.67q10,25.25,19.86,50.6c.4,1,.83,1.66,2,1.46,0,0,.09.06.13.09,0,.31,0,.62.06.92.14,1.13,0,1.4-1.12,1.7-1.61.44-3.22.89-4.84,1.3a1.16,1.16,0,0,0-.9.84c-1.38,3.59-2.8,7.16-4.21,10.74a3.32,3.32,0,0,0-.09.37,6,6,0,0,0,5.62-2.33,36.9,36.9,0,0,0,3.9,2c.86.33,1,.72.76,1.56A23.67,23.67,0,0,1,98.75,88c-.77-.33-1.48-.8-2.24-1.22-3.93,2.82-6.37,2.81-10.92-.05a7.81,7.81,0,0,1-5.4,2.11,7.93,7.93,0,0,1-5.48-2.16,7.85,7.85,0,0,1-5.45,2.16,7.94,7.94,0,0,1-5.45-2.13c-3,2.64-7.45,3-11.37,0a8.13,8.13,0,0,1-10.93,0c-4,2.87-6.59,2.87-11,0l-.51.41a7.83,7.83,0,0,1-9.76,0,.91.91,0,0,0-1.36,0c-.77.59-1.61,1.08-2.42,1.62l-.26-.2c.09-.38,0-.92.28-1.12,1-.82,2.13-1.54,3.24-2.32,3.11,2.54,6.46,3.13,8.51,1.52-.27-.68-.48-1.34-.78-2-1.57-3.24-3.22-6.44-4.73-9.7a10,10,0,0,0-3.81-4.34,21.68,21.68,0,0,0-2-1.26Q11.14,66.58,5.31,63.8C3.91,63.14,2.44,62.59,1,62a1.73,1.73,0,0,1-.9-2.14c.4-.89,1.1-.46,1.68-.26,1.9.65,3.8,1.31,5.68,2a1,1,0,0,0,1.42-.4c2.61-3.32,5.3-6.58,7.87-9.93C25.45,40,34.3,28.76,41.19,16.21a1.45,1.45,0,0,1,.82-.59,4.37,4.37,0,0,0,2.87-3.76,10.46,10.46,0,0,1,.4-2,6.56,6.56,0,0,0,.4-1.31c0-2.61,0-5.22,0-7.83a6.81,6.81,0,0,1,.06-.7A16.36,16.36,0,0,0,47.37,1ZM44.84,26.57a1,1,0,0,0-.51-.65c-1-.47-2-.9-2.94-1.32-1.42-.59-2.53-1.36-2-3.28a1.79,1.79,0,0,0-.32.24C34.6,28,30.53,34.69,28.27,42.32a36.3,36.3,0,0,0-.8,18.39c.12.53.3.82.88.73.92-.15,1.84-.25,2.75-.43.61-.12.73-.52.59-1.14a20,20,0,0,1,.24-10.17A24.84,24.84,0,0,1,33.1,47c.24-.56.58-.61,1.14-.38,3.06,1.26,6.14,2.48,9.22,3.7l.58.19L44.45,48c-3.12-1.17-6.18-2.34-9.26-3.45a2.9,2.9,0,0,1-1.9-1.69,9.18,9.18,0,0,1-.8-3.42,30.19,30.19,0,0,1,1-6.08,18.83,18.83,0,0,1,3.6-7A1,1,0,0,1,38.52,26c2,.9,4.12,1.72,6.34,2.64A20.54,20.54,0,0,0,44.84,26.57ZM47,29.14a1,1,0,0,0,.55.61c1.21.54,2.44,1.06,3.68,1.54.53.2.67.44.67,1A64.75,64.75,0,0,0,53.71,48.9a13.18,13.18,0,0,0,.93,2.36.79.79,0,0,0,1.42.2q3.11-3.82,6.16-7.69a.88.88,0,0,0,0-.79q-3.93-6.55-7.91-13.07a1.06,1.06,0,0,0-.48-.43c-2.09-.77-4.19-1.52-6.29-2.27-.15-.05-.32-.08-.57-.15A19.52,19.52,0,0,0,47,29.14ZM63,42.77l9.21-13L72,29.57a40.43,40.43,0,0,1-17.14.36Zm-.42,11.68-6.48-1.7a.57.57,0,0,0-.33,0,7.62,7.62,0,0,0-2,3.18,19.09,19.09,0,0,0,5.18,12.34,1.08,1.08,0,0,0,.22.14C61.18,64,61.53,59.09,62.55,54.44ZM96.72,65.24c-.12-.24-.69-.38-1-.35A46.4,46.4,0,0,0,84.95,67.3c-2.1.69-4.21,1.3-6.31,2a1,1,0,0,0-.55.73c-.08.7,0,1.42,0,2.12s.25.9.77.84a16,16,0,0,0,2.35-.5,2.37,2.37,0,0,0,.77-.52c3.37-2.78,2-2.09,6.26-1.82,3.59.23,7.16.62,10.75.93.14,0,.28,0,.54,0C98.54,69.06,97.68,67.13,96.72,65.24ZM27.39,63.08a.9.9,0,0,0-.53-.48c-4.58-1.46-9.17-2.89-13.76-4.34a1.45,1.45,0,0,0-1.71.52,8.61,8.61,0,0,0-2.18,3.38,80.34,80.34,0,0,0,19,3.89C27.93,64.94,27.69,64,27.39,63.08Zm31.33,9,16.37.9c.15-.81.27-1.45.37-2.08a3,3,0,0,0,0-.48c-7.38-.13-8.37-.53-14.22-5.91Zm19.35-3.28c1.11-.31,2.1-.56,3.06-.89.15-.05.27-.46.26-.69-.28-4.24-.58-8.48-.88-12.72L79.22,36q-.11-1.57-.22-3.13l-.11,0Zm2.49-45.83-.21.05c.28,1.36.53,2.72.83,4.08,2,9.35,5.85,18,10.22,26.46q2.53,4.9,5.06,9.81l.17-.06Zm-7.06,6a1.6,1.6,0,0,0-.64.51Q68.18,36.3,63.51,43.2a1,1,0,0,0-.07.16l1.2,1.17C69.4,41,75.15,32.58,75.86,27.92,75,28.26,74.25,28.56,73.5,28.9ZM40.88,64.83a57.5,57.5,0,0,1-6.65-2.29,5.29,5.29,0,0,0-4.51-.48,8.76,8.76,0,0,1-2,.28c.37,1.16.73,2.34,1.14,3.49,0,.13.37.23.56.23q6.2,0,12.4-.07A6.37,6.37,0,0,0,43,65.78l0-.21C42.28,65.32,41.58,65.07,40.88,64.83ZM56.44,52.24,62.91,54c.23-1.74.42-3.33.64-4.92.1-.76.22-1.51.35-2.26.26-1.48.19-1.7-.91-2.84ZM76,59.79a1,1,0,0,0-.31-.61c-.56-.55-1.15-1.07-1.81-1.66L71.77,69.46h3.78C75.69,66.13,75.84,63,76,59.79ZM52,71.51c1.55.11,3.11.22,4.65.41.87.11,1.5,0,1.67-1a2.65,2.65,0,0,1,.3-.63l-10.72-3C48.2,70,49.58,71.33,52,71.51ZM74.49,54.72c2.33,0,1.88.33,2-1.76q.5-8.77,1-17.55a12.71,12.71,0,0,0-.06-2L74.31,54.62C74.44,54.69,74.46,54.72,74.49,54.72ZM47,51.41a.87.87,0,0,0,.48.57c1.77.74,3.56,1.45,5.36,2.13a1.11,1.11,0,0,0,.9-.13,18.86,18.86,0,0,0,1.55-1.38L47,49.28C47,50.07,47,50.75,47,51.41Zm6.56-22.85L49.3,19.74C48.68,24,51.19,28.79,53.58,28.57Zm22.53-1.45a.71.71,0,0,0,.36-.42,47.11,47.11,0,0,0,.94-5.44L73.58,28l.15.16C74.52,27.79,75.32,27.47,76.11,27.12Zm.27,28.53H74c-.18.85.22,1.41,2,2.74ZM44.8,16.47V14.55L43.36,16.1Zm2.36-1.26c-.48,1.62-.27,2.17,1,2.4Z"/></g></g></svg>