<?xml version="1.0" standalone="no"?>
<!DOCTYPE svg PUBLIC "-//W3C//DTD SVG 20010904//EN"
 "http://www.w3.org/TR/2001/REC-SVG-20010904/DTD/svg10.dtd">
<svg version="1.0" xmlns="http://www.w3.org/2000/svg"
 width="251.000000pt" height="197.000000pt" viewBox="0 0 251.000000 197.000000"
 preserveAspectRatio="xMidYMid meet">

<g transform="translate(0.000000,197.000000) scale(0.100000,-0.100000)"
fill="#000000" stroke="none">
<path d="M1087 1886 c-3 -7 -25 -16 -49 -19 -23 -4 -135 -24 -248 -46 -188
-36 -205 -38 -216 -23 -11 15 -13 15 -17 2 -17 -63 -206 -614 -388 -1130 -66
-190 -123 -362 -126 -382 -7 -53 26 -102 91 -135 28 -14 62 -34 75 -44 23 -18
60 -19 892 -19 720 0 872 2 896 14 15 8 58 21 96 30 131 31 242 97 310 185 17
23 39 41 49 41 9 0 20 5 23 10 3 6 -5 10 -18 10 -26 0 -35 14 -92 150 -67 160
-216 424 -425 755 -265 420 -310 497 -310 540 0 25 -15 35 -22 14 -6 -17 -479
29 -494 47 -14 18 -20 18 -27 0z m-63 -79 c-27 -28 -96 -104 -154 -167 -204
-223 -243 -265 -267 -290 l-23 -25 0 221 0 221 198 38 c108 20 211 41 227 45
68 18 70 12 19 -43z m273 39 c10 -2 79 -9 153 -16 74 -7 141 -16 148 -20 10
-5 1 -17 -30 -41 -23 -19 -131 -105 -238 -193 -107 -87 -201 -163 -207 -169
-10 -7 -13 38 -13 223 l0 233 85 -7 c46 -4 92 -9 102 -10z m-319 -126 c-81
-83 -127 -140 -164 -202 -36 -61 -66 -98 -100 -124 -27 -21 -68 -53 -91 -72
-24 -19 -43 -30 -43 -25 0 4 41 53 91 108 316 345 413 447 416 439 2 -6 -47
-61 -109 -124z m560 -10 c-42 -39 -105 -108 -139 -153 -59 -78 -67 -85 -172
-140 -106 -56 -140 -65 -104 -29 38 37 473 391 482 391 6 1 -25 -31 -67 -69z
m127 -115 l6 -120 -20 35 c-17 29 -20 53 -20 145 0 99 1 107 14 85 8 -15 16
-74 20 -145z m-1320 -542 c-114 -345 -213 -633 -221 -639 -8 -6 -14 -14 -14
-18 0 -3 99 -6 220 -6 140 0 220 -4 220 -10 0 -6 -67 -10 -180 -10 l-180 0 0
-40 c0 -45 -2 -46 -80 -29 -42 9 -50 14 -45 27 7 19 212 610 373 1076 59 170
108 302 110 293 2 -9 -90 -299 -203 -644z m742 550 c-3 -10 -5 -2 -5 17 0 19
2 27 5 18 2 -10 2 -26 0 -35z m578 -248 c3 -60 8 -123 11 -140 4 -27 2 -25
-20 15 -23 41 -25 56 -25 165 0 107 1 117 13 95 8 -14 17 -72 21 -135z m-364
47 c-11 -22 -26 -42 -32 -44 -7 -2 -13 -15 -14 -29 -1 -13 -14 -89 -28 -169
-26 -139 -49 -341 -62 -520 -8 -127 -14 -213 -15 -227 0 -7 -7 -13 -16 -13 -8
0 -12 -4 -9 -10 3 -5 1 -10 -4 -10 -8 0 -11 149 -11 483 l0 482 103 51 c56 29
103 51 105 49 2 -2 -6 -21 -17 -43z m-565 -27 c-14 -37 -57 -314 -70 -455 -15
-152 -19 -196 -31 -372 -4 -49 -11 -88 -16 -88 -5 0 -9 -4 -9 -10 0 -6 87 -10
240 -10 l240 0 0 -30 c0 -20 -5 -30 -15 -30 -8 0 -15 -4 -15 -10 0 -5 -10 -10
-23 -10 -29 0 -47 -18 -47 -47 0 -16 -6 -23 -19 -23 -17 0 -20 8 -23 52 l-3
53 -127 3 -128 3 0 -36 c0 -35 0 -35 -45 -35 -25 0 -45 -4 -45 -10 0 -5 -4
-10 -10 -10 -7 0 -10 167 -10 483 l1 482 72 57 c75 59 93 68 83 43z m742 -42
c-10 -2 -28 -2 -40 0 -13 2 -5 4 17 4 22 1 32 -1 23 -4z m-391 -435 c-1 -68
-3 -15 -3 117 0 132 2 187 3 123 2 -64 2 -172 0 -240z m568 117 c9 -121 17
-314 18 -430 1 -196 0 -213 -20 -255 l-22 -45 0 479 c-1 264 1 477 4 475 2 -3
11 -104 20 -224z m-48 -157 c-1 -62 -3 -12 -3 112 0 124 2 174 3 113 2 -62 2
-164 0 -225z m-1060 210 c-3 -8 -6 -5 -6 6 -1 11 2 17 5 13 3 -3 4 -12 1 -19z
m0 -250 c-3 -7 -5 -2 -5 12 0 14 2 19 5 13 2 -7 2 -19 0 -25z m540 -70 c-3 -8
-6 -5 -6 6 -1 11 2 17 5 13 3 -3 4 -12 1 -19z m520 -40 c-3 -7 -5 -2 -5 12 0
14 2 19 5 13 2 -7 2 -19 0 -25z m801 -305 c6 -9 12 -20 12 -24 0 -9 -140 -40
-150 -34 -11 7 -40 64 -40 78 0 18 163 -1 178 -20z m-1990 10 c-15 -2 -42 -2
-60 0 -18 2 -6 4 27 4 33 0 48 -2 33 -4z m1778 -13 c22 0 63 -44 52 -56 -6 -6
-29 -10 -108 -19 l-56 -6 -17 36 c-27 56 -24 59 44 51 34 -3 72 -6 85 -6z
m-586 -65 l0 -45 -60 0 c-56 0 -60 2 -60 23 0 43 -14 47 -187 47 -102 0 -163
4 -163 10 0 6 85 10 235 10 l235 0 0 -45z m397 29 c28 -3 46 -12 53 -24 9 -16
5 -19 -38 -24 -72 -9 -364 -27 -369 -23 -2 3 4 21 13 40 16 34 20 36 73 39 66
4 209 -1 268 -8z m-1177 -14 c0 -11 -7 -20 -15 -20 -8 0 -15 9 -15 20 0 11 7
20 15 20 8 0 15 -9 15 -20z m40 0 c0 -11 -7 -20 -15 -20 -8 0 -15 9 -15 20 0
11 7 20 15 20 8 0 15 -9 15 -20z m40 0 c0 -11 -4 -20 -10 -20 -5 0 -10 9 -10
20 0 11 5 20 10 20 6 0 10 -9 10 -20z m-640 -35 c0 -31 -3 -35 -25 -33 -45 4
-45 68 1 68 21 0 24 -5 24 -35z m70 0 c0 -31 -3 -35 -25 -35 -22 0 -25 4 -25
35 0 31 3 35 25 35 22 0 25 -4 25 -35z m80 -1 c0 -31 -3 -35 -22 -32 -18 2
-24 11 -26 36 -3 29 -1 32 22 32 23 0 26 -4 26 -36z m68 4 c-2 -25 -8 -33 -23
-33 -15 0 -21 8 -23 33 -3 29 -1 32 23 32 24 0 26 -3 23 -32z m62 12 c0 -11
-7 -20 -15 -20 -8 0 -15 9 -15 20 0 11 7 20 15 20 8 0 15 -9 15 -20z m1800
-43 c-83 -79 -166 -120 -305 -152 -29 -6 -29 -6 -11 13 10 11 41 26 69 32 79
19 156 60 206 111 41 42 63 55 96 58 6 0 -19 -28 -55 -62z m-1270 43 c0 -5 -9
-10 -20 -10 -11 0 -20 5 -20 10 0 6 9 10 20 10 11 0 20 -4 20 -10z m50 0 c0
-5 -9 -10 -20 -10 -11 0 -20 5 -20 10 0 6 9 10 20 10 11 0 20 -4 20 -10z m50
0 c0 -5 -9 -10 -20 -10 -11 0 -20 5 -20 10 0 6 9 10 20 10 11 0 20 -4 20 -10z
m50 0 c0 -5 -9 -10 -20 -10 -11 0 -20 5 -20 10 0 6 9 10 20 10 11 0 20 -4 20
-10z m50 0 c0 -5 -9 -10 -20 -10 -11 0 -20 5 -20 10 0 6 9 10 20 10 11 0 20
-4 20 -10z m50 0 c0 -5 -9 -10 -20 -10 -11 0 -20 5 -20 10 0 6 9 10 20 10 11
0 20 -4 20 -10z m50 0 c0 -5 -7 -10 -15 -10 -8 0 -15 5 -15 10 0 6 7 10 15 10
8 0 15 -4 15 -10z m60 0 c0 -5 -9 -10 -20 -10 -11 0 -20 5 -20 10 0 6 9 10 20
10 11 0 20 -4 20 -10z m837 -45 c-42 -39 -152 -93 -164 -81 -6 6 190 125 207
125 3 0 -17 -20 -43 -44z"/>
</g>
</svg>
